<?xml version="1.0" encoding="UTF-8"?>
<svg width="20px" height="20px" viewBox="0 0 20 20" version="1.1" xmlns="http://www.w3.org/2000/svg" xmlns:xlink="http://www.w3.org/1999/xlink">
    <title>Icon-workbench</title>
    <g id="灰鲸中台暗色系" stroke="none" stroke-width="1" fill="none" fill-rule="evenodd">
        <g id="nav_bar" transform="translate(-274.000000, -15.000000)" fill="#FFFFFF" fill-rule="nonzero">
            <g id="编组-2" transform="translate(262.000000, 8.000000)">
                <g id="Icon-workbench" transform="translate(12.000000, 7.000000)">
                    <g id="形状" transform="translate(1.500000, 3.000000)">
                        <path d="M15.7873252,5.05252424e-07 L1.21492566,5.05252424e-07 L1.21492568,5.05252424e-07 C0.545189452,-0.000584299983 0.00175259418,0.506568348 0.00112355415,1.13275755 C0.00112355415,1.13346431 0.00112355415,1.13417107 0.00112355415,1.13487783 L0.00112355415,10.1831665 L0.00112355415,10.1831781 C-0.000119571708,10.8093673 0.541800054,11.3179379 1.21153628,11.3191038 C1.2126705,11.3191038 1.21380472,11.3191038 1.21493894,11.3191038 L15.7873208,11.3191038 L15.7873208,11.3191038 C16.4570588,11.3191038 16.9999892,10.8114781 16.9999892,10.1852873 C16.9999892,10.1845802 16.9999892,10.1838731 16.9999892,10.183166 L16.9999892,1.13487734 L16.9999892,1.13485343 C17.0005989,0.508664224 16.4581653,0.000572191938 15.788429,5.05252424e-07 C15.7880511,5.05252424e-07 15.7876731,5.05252424e-07 15.7872952,5.05252424e-07 L15.7873252,5.05252424e-07 Z M15.3011252,9.68831403 L1.70112565,9.68831403 L1.70112565,1.54390056 L15.3011252,1.54390056 L15.3011252,9.68831403 Z M0.00112569828,12.8651227 L0.0011256742,12.8651471 C0.000513847756,13.4913363 0.542947532,13.9994283 1.21268376,14 C1.21343967,14 1.21419558,14 1.21495149,14 L15.7873333,14 L15.7873334,14 C16.4570714,14 17,13.4923727 17,12.8661818 C17,12.8658285 17,12.8654751 17,12.8651217 L17,11.8637594 L0,11.8637594 L0.0011333333,12.8651217 L0.00112569828,12.8651227 Z M7.76445879,12.6320013 L9.23892541,12.6320013 C9.42025874,12.6320013 9.56419207,12.7665759 9.56419207,12.9297609 L9.56419207,12.9297605 C9.56295824,13.0953744 9.4183643,13.2286973 9.24123281,13.2275433 C9.24046392,13.2275382 9.23969504,13.2275307 9.23892621,13.2275205 L7.76445959,13.2275205 L7.76445959,13.2275205 C7.58735147,13.2304506 7.44123647,13.0985865 7.4381021,12.9329945 C7.43808171,12.9319169 7.43805956,12.9308392 7.43805956,12.9297614 C7.43805956,12.7665765 7.58199289,12.6320013 7.76445955,12.6320013 L7.76445879,12.6320013 Z"></path>
                    </g>
                </g>
            </g>
        </g>
    </g>
</svg>