<?xml version="1.0" encoding="UTF-8"?>
<svg width="20px" height="20px" viewBox="0 0 20 20" version="1.1" xmlns="http://www.w3.org/2000/svg" xmlns:xlink="http://www.w3.org/1999/xlink">
    <title>Icon-A recent visit to</title>
    <g id="灰鲸中台暗色系" stroke="none" stroke-width="1" fill="none" fill-rule="evenodd">
        <g id="nav_bar_message" transform="translate(-240.000000, -150.000000)" fill="#FFFFFF" fill-rule="nonzero">
            <g id="Icon-A-recent-visit-to" transform="translate(240.000000, 150.000000)">
                <g transform="translate(2.000000, 2.000000)" id="形状">
                    <path d="M10.52,7.92 L8.68,7.92 L8.68,5.2 C8.68,4.84 8.52,4.52 8.2,4.32 C7.88,4.12 7.52,4.12 7.2,4.32 C6.88,4.52 6.72,4.84 6.72,5.2 L6.72,8.88 C6.72,9.44 7.16,9.88 7.68,9.88 C7.72,9.88 7.8,9.88 7.84,9.84 C7.88,9.84 7.96,9.88 8,9.88 L10.52,9.88 C11.04,9.88 11.48,9.44 11.48,8.88 C11.48,8.4 11.04,7.96 10.52,7.92 L10.52,7.92 Z M8.04,0 L7.96,0 C3.56,0 0,3.6 0,8 C0,12.4 3.56,16 7.96,16 L8.04,16 C12.44,16 16,12.4 16,8 C16,3.6 12.44,0 8.04,0 Z M7.95569374,14 C6.36066848,13.958042 4.84959192,13.3286713 3.71628449,12.1538462 C2.03731053,10.4335664 1.53361834,7.91608392 2.45705402,5.69230769 C3.3804897,3.46853147 5.5211815,2.04195804 7.95569374,2 L7.99766809,2 C11.3136417,2 14,4.72727273 14,8 C13.9580257,11.3566434 11.2716673,14 7.95569374,14 Z"></path>
                </g>
            </g>
        </g>
    </g>
</svg>