<?xml version="1.0" encoding="UTF-8"?>
<svg width="100px" height="100px" viewBox="0 0 100 100" version="1.1" xmlns="http://www.w3.org/2000/svg" xmlns:xlink="http://www.w3.org/1999/xlink">
    <title>default page-No team</title>
    <defs>
        <linearGradient x1="50%" y1="58.29%" x2="50%" y2="0%" id="linearGradient-1">
            <stop stop-color="#F8FAFC" stop-opacity="0" offset="0%"></stop>
            <stop stop-color="#EFF2F6" stop-opacity="0.753474095" offset="42.9869325%"></stop>
            <stop stop-color="#ECEFF4" offset="100%"></stop>
        </linearGradient>
        <linearGradient x1="49.9950748%" y1="0.0325221239%" x2="49.9950748%" y2="100%" id="linearGradient-2">
            <stop stop-color="#CED8E0" stop-opacity="0" offset="0%"></stop>
            <stop stop-color="#B4C0CC" offset="100%"></stop>
        </linearGradient>
        <linearGradient x1="50%" y1="100.011976%" x2="50%" y2="0%" id="linearGradient-3">
            <stop stop-color="#E1E6EF" offset="0%"></stop>
            <stop stop-color="#C6D0E0" offset="100%"></stop>
        </linearGradient>
        <linearGradient x1="50%" y1="100.011976%" x2="50%" y2="0%" id="linearGradient-4">
            <stop stop-color="#E1E6EF" offset="0%"></stop>
            <stop stop-color="#C6D0E0" offset="100%"></stop>
        </linearGradient>
        <linearGradient x1="50%" y1="100.011976%" x2="50%" y2="0%" id="linearGradient-5">
            <stop stop-color="#E1E6EF" offset="0%"></stop>
            <stop stop-color="#C6D0E0" offset="100%"></stop>
        </linearGradient>
        <linearGradient x1="50%" y1="100.011976%" x2="50%" y2="0%" id="linearGradient-6">
            <stop stop-color="#E1E6EF" offset="0%"></stop>
            <stop stop-color="#C6D0E0" offset="100%"></stop>
        </linearGradient>
        <linearGradient x1="50%" y1="100.011976%" x2="50%" y2="0%" id="linearGradient-7">
            <stop stop-color="#E1E6EF" offset="0%"></stop>
            <stop stop-color="#C6D0E0" offset="100%"></stop>
        </linearGradient>
        <linearGradient x1="50%" y1="100.011976%" x2="50%" y2="0%" id="linearGradient-8">
            <stop stop-color="#E1E6EF" offset="0%"></stop>
            <stop stop-color="#C6D0E0" offset="100%"></stop>
        </linearGradient>
        <linearGradient x1="50%" y1="100.011976%" x2="50%" y2="0%" id="linearGradient-9">
            <stop stop-color="#E1E6EF" offset="0%"></stop>
            <stop stop-color="#C6D0E0" offset="100%"></stop>
        </linearGradient>
        <linearGradient x1="77.7887443%" y1="103.38074%" x2="12.0599065%" y2="13.97582%" id="linearGradient-10">
            <stop stop-color="#C6D0E0" offset="0%"></stop>
            <stop stop-color="#EFF2F6" offset="100%"></stop>
        </linearGradient>
        <linearGradient x1="50%" y1="100.011976%" x2="50%" y2="0%" id="linearGradient-11">
            <stop stop-color="#E1E6EF" offset="0%"></stop>
            <stop stop-color="#C6D0E0" offset="100%"></stop>
        </linearGradient>
        <linearGradient x1="50.0026816%" y1="100.00218%" x2="50.0026816%" y2="0.00802615933%" id="linearGradient-12">
            <stop stop-color="#EBF2FA" offset="0%"></stop>
            <stop stop-color="#FDFEFF" offset="52.47%"></stop>
        </linearGradient>
        <linearGradient x1="50%" y1="100.011976%" x2="50%" y2="0%" id="linearGradient-13">
            <stop stop-color="#E1E6EF" offset="0%"></stop>
            <stop stop-color="#C6D0E0" offset="100%"></stop>
        </linearGradient>
        <linearGradient x1="50%" y1="100.011976%" x2="50%" y2="0%" id="linearGradient-14">
            <stop stop-color="#E1E6EF" offset="0%"></stop>
            <stop stop-color="#C6D0E0" offset="100%"></stop>
        </linearGradient>
        <linearGradient x1="50%" y1="100.011976%" x2="50%" y2="0%" id="linearGradient-15">
            <stop stop-color="#E1E6EF" offset="0%"></stop>
            <stop stop-color="#C6D0E0" offset="100%"></stop>
        </linearGradient>
        <linearGradient x1="50%" y1="100.011976%" x2="50%" y2="0%" id="linearGradient-16">
            <stop stop-color="#E1E6EF" offset="0%"></stop>
            <stop stop-color="#C6D0E0" offset="100%"></stop>
        </linearGradient>
        <linearGradient x1="81.5853734%" y1="103.030367%" x2="6.87635226%" y2="14.2122706%" id="linearGradient-17">
            <stop stop-color="#C6D0E0" offset="0%"></stop>
            <stop stop-color="#EFF2F6" offset="100%"></stop>
        </linearGradient>
    </defs>
    <g id="页面-1" stroke="none" stroke-width="1" fill="none" fill-rule="evenodd">
        <g id="01_1_5工作台首页_站内信_暂无通知" transform="translate(-1154.000000, -160.000000)" fill-rule="nonzero">
            <g id="default-page-No-team备份-2" transform="translate(1154.000000, 160.000000)">
                <g id="编组-8" transform="translate(4.500000, 15.500000)">
                    <ellipse id="椭圆形备份" fill="url(#linearGradient-1)" cx="45.5" cy="48.2561203" rx="45.5" ry="21.2438797"></ellipse>
                    <g id="暂无任何订阅" transform="translate(10.911765, 0.000000)">
                        <g id="编组" transform="translate(0.000000, 13.381969)">
                            <polygon id="路径" fill="url(#linearGradient-2)" opacity="0.98" points="19.1555173 34.6571779 33.315633 9.8459551 74.5912919 9.8459551 65.1924253 31.618104"></polygon>
                            <g transform="translate(0.000000, 6.114545)" id="路径">
                                <path d="M4.27843545,0.0346584432 C4.27843545,0.0346584432 4.2468088,-0.0470139809 4.20368154,0.0403898414 C3.81553624,0.827024243 0.300664891,9.3481805 0.0217753037,15.9249599 C0.0217753037,15.9249599 -0.564755375,19.7033842 4.35031421,19.6532344 C8.45315382,19.6116818 8.3438981,16.1284246 8.32952235,14.9549208 C8.27489449,10.1949946 4.27843545,0.0346584432 4.27843545,0.0346584432 Z" fill="url(#linearGradient-3)"></path>
                                <path d="M4.16630459,23.8371551 C4.08723795,23.8371551 4.02254707,23.7726769 4.02254707,23.6938702 L4.02254707,2.32578487 C4.02254707,2.24697814 4.08723795,2.18249991 4.16630459,2.18249991 C4.24537122,2.18249991 4.31006211,2.24697814 4.31006211,2.32578487 L4.31006211,23.6938702 C4.31006211,23.7726769 4.24537122,23.8371551 4.16630459,23.8371551 Z" fill="url(#linearGradient-4)"></path>
                            </g>
                            <g transform="translate(63.946367, 0.000000)" id="路径">
                                <path d="M2.75407456,0.0223386051 C2.75407456,0.0223386051 2.7339485,-0.0306768281 2.70663458,0.0266371538 C2.45649649,0.532433044 0.193753136,6.02024681 0.0140562371,10.2543172 C0.0140562371,10.2543172 -0.364026039,12.6872957 2.80151454,12.6557731 C5.44377775,12.6299818 5.37333656,10.3861394 5.36327353,9.63102767 C5.32733415,6.56472964 2.75407456,0.0223386051 2.75407456,0.0223386051 Z" fill="url(#linearGradient-5)"></path>
                                <path d="M2.6821958,15.3480974 C2.63044309,15.3480974 2.59019099,15.3065447 2.59019099,15.256395 L2.59019099,1.49817364 C2.59019099,1.44659105 2.63188067,1.40647127 2.6821958,1.40647127 C2.7339485,1.40647127 2.77420061,1.4480239 2.77420061,1.49817364 L2.77420061,15.256395 C2.77420061,15.3065447 2.73251093,15.3480974 2.6821958,15.3480974 Z" fill="url(#linearGradient-6)"></path>
                            </g>
                            <g transform="translate(74.778177, 21.454902)">
                                <ellipse id="椭圆形" fill="url(#linearGradient-7)" cx="1.9996671" cy="1.99309372" rx="1.9996671" ry="1.99309372"></ellipse>
                                <path d="M2.00685497,6.92209616 C1.97235317,6.92209616 1.94503924,6.89487202 1.94503924,6.86048363 L1.94503924,0.564542721 C1.94503924,0.530154332 1.97235317,0.502930191 2.00685497,0.502930191 C2.04135678,0.502930191 2.0686707,0.530154332 2.0686707,0.564542721 L2.0686707,6.86048363 C2.0686707,6.89487202 2.04135678,6.92209616 2.00685497,6.92209616 Z" id="路径" fill="url(#linearGradient-8)"></path>
                            </g>
                        </g>
                        <g id="编组" transform="translate(12.640427, 0.000000)">
                            <path d="M42.4530331,50.8675918 L5.26008764,50.8675918 C2.35618574,50.8675918 0.00143757519,48.5205842 0.00143757519,45.6262281 L0.00143757519,5.24136364 C0.00143757519,2.34700756 2.35618574,0 5.26008764,0 L42.4530331,0 C45.356935,0 47.7116838,2.34700756 47.7116838,5.24136364 L47.7116838,45.6262281 C47.7131207,48.5205842 45.3583725,50.8675918 42.4530331,50.8675918 Z" id="路径" fill="url(#linearGradient-9)"></path>
                            <path d="M42.5392876,50.8675918 L3.9058918,50.8675918 C1.74952901,50.8675918 0,49.1252467 0,46.9745395 L0,5.24422934 C0,3.09495502 1.74809144,1.35117712 3.9058918,1.35117712 L42.5392876,1.35117712 C44.6956504,1.35117712 46.4451794,3.09352217 46.4451794,5.24422934 L46.4451794,46.9745395 C46.4437418,49.1252467 44.6956504,50.8675918 42.5392876,50.8675918 Z" id="路径" fill="url(#linearGradient-10)"></path>
                            <path d="M40.3052957,21.7621189 L21.1337929,21.7621189 C19.7666589,21.7621189 18.6568509,20.6573919 18.6568509,19.2933191 L18.6568509,9.3149549 C18.6568509,7.95231498 19.7652213,6.84615513 21.1337929,6.84615513 L40.3038581,6.84615513 C41.6709922,6.84615513 42.7808002,7.95088214 42.7808002,9.3149549 L42.7808002,19.2933191 C42.7808002,20.6573919 41.6724297,21.7621189 40.3052957,21.7621189 Z" id="路径" fill="url(#linearGradient-11)"></path>
                            <path d="M39.7690802,21.7621189 L21.1337929,21.7621189 C19.7666589,21.7621189 18.6568509,20.6573919 18.6568509,19.2933191 L18.6568509,9.77060106 C18.6568509,8.40796114 19.7652213,7.30180129 21.1337929,7.30180129 L39.7676426,7.30180129 C41.1347766,7.30180129 42.2445847,8.40652829 42.2445847,9.77060106 L42.2445847,19.2933191 C42.2445847,20.6573919 41.1362142,21.7621189 39.7690802,21.7621189 Z" id="路径" fill="url(#linearGradient-12)"></path>
                            <rect id="矩形" fill="url(#linearGradient-13)" x="4.27966135" y="9.16307285" width="11.9692511" height="2.73817548"></rect>
                            <rect id="矩形" fill="url(#linearGradient-13)" x="4.27966135" y="16.9463116" width="11.9692511" height="2.73817548"></rect>
                            <rect id="矩形" fill="url(#linearGradient-14)" x="4.24947227" y="24.6622064" width="38.9079726" height="2.8341764"></rect>
                            <rect id="矩形" fill="url(#linearGradient-15)" x="4.24947227" y="32.4640722" width="38.9079726" height="2.75536968"></rect>
                            <rect id="矩形" fill="url(#linearGradient-15)" x="4.24947227" y="40.3519089" width="38.9079726" height="2.75536968"></rect>
                            <rect id="矩形" fill="#FFFFFF" x="4.27966135" y="9.4825983" width="11.5581046" height="2.41865004"></rect>
                            <rect id="矩形" fill="#FFFFFF" x="4.27966135" y="17.2801655" width="11.5581046" height="2.41865004"></rect>
                            <rect id="矩形" fill="#FFFFFF" x="4.27966135" y="25.0777328" width="38.4076965" height="2.41865004"></rect>
                            <rect id="矩形" fill="#FFFFFF" x="4.27966135" y="32.8753" width="38.4076965" height="2.41865004"></rect>
                            <rect id="矩形" fill="#FFFFFF" x="4.27966135" y="40.6728672" width="38.4076965" height="2.41865004"></rect>
                            <ellipse id="椭圆形" fill="url(#linearGradient-16)" cx="42.2560853" cy="39.3603771" rx="11.7550524" ry="11.7164107"></ellipse>
                            <ellipse id="椭圆形" fill="url(#linearGradient-17)" cx="41.5674867" cy="39.4377509" rx="11.4287228" ry="11.3911539"></ellipse>
                            <path d="M43.4923999,39.4377509 L46.2482316,36.6909783 C46.7801344,36.160824 46.7801344,35.3025471 46.2482316,34.7738257 C45.7163288,34.2436713 44.8552212,34.2436713 44.324756,34.7738257 L41.5689243,37.5205982 L38.8130927,34.7738257 C38.2811898,34.2436713 37.4200823,34.2436713 36.8896171,34.7738257 C36.3577142,35.30398 36.3577142,36.1622569 36.8896171,36.6909783 L39.6454487,39.4377509 L36.8896171,42.1845235 C36.3577142,42.7146778 36.3577142,43.5729547 36.8896171,44.1016762 C37.1555685,44.3667534 37.5034617,44.4985755 37.8513549,44.4985755 C38.1992481,44.4985755 38.5471413,44.3667534 38.8130927,44.1016762 L41.5689243,41.3549036 L44.324756,44.1016762 C44.5907074,44.3667534 44.9386006,44.4985755 45.2864938,44.4985755 C45.634387,44.4985755 45.9822802,44.3667534 46.2482316,44.1016762 C46.7801344,43.5715219 46.7801344,42.713245 46.2482316,42.1845235 L43.4923999,39.4377509 Z" id="路径" fill="#FFFFFF"></path>
                        </g>
                    </g>
                </g>
            </g>
        </g>
    </g>
</svg>