<?xml version="1.0" encoding="UTF-8"?>
<svg width="20px" height="20px" viewBox="0 0 20 20" version="1.1" xmlns="http://www.w3.org/2000/svg" xmlns:xlink="http://www.w3.org/1999/xlink">
    <title>Icon-Switch companies</title>
    <g id="灰鲸中台暗色系" stroke="none" stroke-width="1" fill="none" fill-rule="evenodd">
        <g id="nav_bar" transform="translate(-1084.000000, -61.000000)" fill-rule="nonzero">
            <g id="Icon-Switch-companies" transform="translate(1084.000000, 61.000000)">
                <g id="切换" transform="translate(10.000000, 10.000000) rotate(-270.000000) translate(-10.000000, -10.000000) translate(3.000000, 3.000000)">
                    <path d="M1.16957567,-3.97281185e-13 L12.8304243,-3.97281185e-13 C13.4763631,-3.97843931e-13 14,0.523636865 14,1.16957567 L14,1.16957567 L14,1.16957567 L5.06261699e-14,1.16957567 C5.05470652e-14,0.523636865 0.523636865,-3.97162528e-13 1.16957567,-3.97281185e-13 Z M4.97379915e-14,1.16957567 L1.14433338,1.16957567 L1.14433338,14 C0.512335505,14 4.93251116e-14,13.4876645 4.97379915e-14,12.8556666 L4.97379915e-14,1.16957567 L4.97379915e-14,1.16957567 Z M1.14433338,12.8348357 L14,12.8348357 C14,13.4783382 13.4783382,14 12.8348357,14 L1.14433338,14 L1.14433338,14 L1.14433338,12.8348357 Z M12.8313113,0.00668995608 C13.4767603,0.00668995608 14,0.529929695 14,1.17537862 L14,12.8348357 L14,12.8348357 L12.8313113,12.8348357 L12.8313113,0.00668995608 Z" id="形状" fill="#000000"></path>
                    <g id="编组-8" transform="translate(3.271998, 3.297483)" fill="#3C7DFF">
                        <path d="M1.56231084e-05,5.11988997 L1.56231084e-05,6.07792085 L1.56231084e-05,6.07792084 C0.80166944,6.12747479 1.5936625,5.88159998 2.22583376,5.38691947 L2.33594741,5.29266947 L2.33594741,5.29266888 C2.14739983,5.01600146 1.98168163,4.72449583 1.84042827,4.42102776 L1.84042824,4.42102776 C1.37641436,4.93767177 0.690619119,5.19808934 1.56231084e-05,5.1198894" id="路径"></path>
                        <path d="M5.59201891,1.36638291 L5.59201911,1.36638292 C4.79036864,1.3168367 3.99837266,1.56271545 3.36621601,2.05739887 L3.25610236,2.15163429 L3.25610239,2.15163433 C3.43646881,2.42913735 3.59428669,2.72061527 3.72804579,3.02327399 L3.72804576,3.02327402 C4.19203919,2.50665629 4.87779792,2.24624601 5.56837074,2.32442699 L5.56837074,5.11990261 C3.99542082,5.11990261 3.64152059,4.41319534 3.20893855,3.54941446 L3.20893867,3.54941476 C2.9873501,2.99916132 2.65240391,2.50155254 2.22581758,2.08885334 L2.2258177,2.08885344 C1.59811438,1.5829236 0.805678762,1.32571575 1.35858535e-14,1.36639652 L1.35858535e-14,2.32442739 C1.57300835,2.32442739 1.92693779,3.03113467 2.35950523,3.89491555 L2.35950503,3.89491508 C2.58817745,4.43181924 2.92555989,4.91572144 3.35046947,5.31623362 L3.35046941,5.31623357 C3.98264213,5.81091116 4.77462934,6.05680843 5.57628711,6.00731078 L5.57628711,7.405034 L7.44028821,5.5439502 L5.59201763,3.72219677 L7.45600412,1.86112755 L5.59201763,-1.62775089e-13 L5.59201763,1.36638434 L5.59201891,1.36638291 Z" id="路径"></path>
                    </g>
                </g>
            </g>
        </g>
    </g>
</svg>