<?xml version="1.0" encoding="UTF-8"?>
<svg width="20px" height="20px" viewBox="0 0 20 20" version="1.1" xmlns="http://www.w3.org/2000/svg" xmlns:xlink="http://www.w3.org/1999/xlink">
    <title>Icon-Marketing promotion</title>
    <g id="灰鲸中台暗色系" stroke="none" stroke-width="1" fill="none" fill-rule="evenodd">
        <g id="nav_bar_message" transform="translate(-240.000000, -251.000000)" fill="#FFFFFF" fill-rule="nonzero">
            <g id="Icon-Marketing-promotion" transform="translate(240.000000, 251.000000)">
                <g transform="translate(2.000000, 2.000000)" id="形状">
                    <path d="M7.3019019,15.8425501 L0.000182464898,12.2927748 L2.32852151,11.1622518 L7.9995198,13.9199723 L13.7316498,11.1332151 L15.9998426,12.2917762 L8.69812319,15.8415515 L8.69812317,15.8415515 C8.25674536,16.0528162 7.74330315,16.0528162 7.30192534,15.8415515 L7.3019019,15.8425501 Z M7.3019019,11.7971037 L0.000182464898,8.24832859 L2.32852151,7.11780557 L7.9995198,9.87452585 L13.7316498,7.08776868 L15.9998426,8.24733153 L8.69812319,11.7961067 L8.69812326,11.7961066 C8.2571459,12.009131 7.74290123,12.009131 7.30192543,11.7961067 L7.3019019,11.7971037 Z M7.5344339,7.74564054 L0.143504095,4.15179446 L0.143504101,4.15179446 C0.018401221,4.09268493 -0.0350511677,3.94344756 0.024113782,3.81846161 C0.0489004368,3.76610085 0.0910939856,3.72394716 0.143504101,3.69918408 L7.5344339,0.107338376 L7.53443383,0.107338413 C7.82828212,-0.0357793734 8.1717178,-0.0357795297 8.46556609,0.107338296 L15.8564959,3.699184 L15.8564959,3.699184 C15.9815988,3.75829353 16.0350512,3.9075309 15.9758862,4.03251685 C15.9510996,4.08487761 15.908906,4.1270313 15.8564959,4.15179438 L8.4655661,7.74564046 L8.46556618,7.74564042 C8.17144414,7.8875672 7.82855596,7.8875672 7.53443392,7.7456405 L7.5344339,7.74564054 Z M4.32708409,3.92650219 L7.99648824,5.70989926 L11.6658924,3.92650219 L8.00349618,2.14310513 L4.32708409,3.92650219 Z"></path>
                </g>
            </g>
        </g>
    </g>
</svg>