<?xml version="1.0" encoding="UTF-8"?>
<svg width="20px" height="20px" viewBox="0 0 20 20" version="1.1" xmlns="http://www.w3.org/2000/svg" xmlns:xlink="http://www.w3.org/1999/xlink">
    <title>Icon-earth</title>
    <g id="灰鲸中台暗色系" stroke="none" stroke-width="1" fill="none" fill-rule="evenodd">
        <g id="nav_bar_message" transform="translate(-734.000000, -251.000000)" fill="#FFFFFF" fill-rule="nonzero">
            <g id="Icon-earth" transform="translate(734.000000, 251.000000)">
                <g id="形状" transform="translate(2.000475, 2.000000)">
                    <path d="M15.9990492,7.9935186 C15.9990492,3.57882607 12.4175799,-5.05151003e-18 7.99960281,-5.05151003e-18 C3.58154753,-5.05151003e-18 -5.35460064e-16,3.57882607 -5.35460064e-16,7.9935186 C-5.35460064e-16,12.0716248 3.05603806,15.4361743 7.00445217,15.9257572 C7.22703552,15.972665 7.49814392,16 7.82104157,16 C7.9116884,16 7.99910231,15.9952308 8.08352416,15.9865886 C12.4628376,15.9415852 15.9990492,12.3803758 15.9990492,7.99352359 L15.9990492,7.9935186 Z M14.8552094,8.10661911 C14.8321956,7.70778309 14.7795103,7.31738049 14.699282,6.93797325 C14.7064038,6.80249913 14.7083403,6.67414712 14.7047074,6.55482008 C14.8039164,7.01872894 14.8562341,7.50001767 14.8562341,7.9935186 C14.8562496,8.03130417 14.8558175,8.0689776 14.8552094,8.10661911 L14.8552094,8.10661911 Z M1.14282006,7.9935186 C1.14282006,7.50901259 1.19326484,7.03630119 1.28898487,6.58021889 C1.58509168,6.89690721 2.28301094,6.88943255 2.45321382,6.41625818 C2.75775406,6.59775986 3.16700988,6.63080851 3.16700988,6.99358819 C3.16700988,8.19088144 3.20964467,9.47448905 4.297502,9.49432137 C4.3281337,9.49472147 4.90418321,9.7126317 5.17833215,10.4236281 C5.27312406,10.6693705 5.64806715,10.4236281 6.05924207,10.4236281 C6.26450968,10.4236281 6.05924207,10.7694439 6.05924207,11.5172474 C6.05924207,12.2621558 7.66523745,13.4091379 7.66523745,13.4091379 C7.65779558,13.9022227 7.67804068,14.3009305 7.71907499,14.6194582 C7.35656745,14.6127845 7.05106688,14.6608286 6.81105361,14.7425291 C3.59069511,14.1801469 1.14282006,11.3726306 1.14282006,7.99353534 L1.14282006,7.9935186 Z M9.68760826,14.6358793 C9.65206337,14.461846 9.49655173,14.366543 9.21281665,14.4411222 C9.43921005,13.4770229 9.54927003,12.9369676 10.0218845,12.5269126 C10.7056881,11.9341546 10.103313,11.2749819 9.58295838,11.3526642 C9.17282356,11.4145837 9.43200833,10.8448568 9.06594802,10.8133441 C8.69988849,10.7827124 8.22183111,10.0545921 7.69499531,9.80404961 C7.41572563,9.67142412 7.1412717,9.31600726 6.71057102,9.30008197 C6.32882707,9.28527824 5.77094305,9.62286701 5.77094305,9.36264167 C5.77094305,8.52444631 5.68607372,7.92632834 5.66862926,7.68746779 C5.65454571,7.49556353 5.54318969,7.62282757 6.05923988,7.63523059 C6.34009395,7.64275248 6.20290812,7.0711044 6.48089871,7.04877897 C6.75392778,7.02717347 7.40452319,7.30436404 7.57027788,7.19388756 C7.72426862,7.09101367 8.7022105,9.760937 8.7022105,7.63521448 C8.7022105,7.38299058 8.5715856,6.94446489 8.7022105,6.7055887 C9.21882046,5.76163923 9.7024631,4.99232988 9.65902751,4.87977992 C9.63438132,4.81641989 9.1304947,4.76410277 8.72732153,4.89938482 C8.59125525,4.94482022 8.77059649,5.15793067 8.57517121,5.2034449 C7.84297083,5.37247943 7.19605566,5.0060195 7.42259296,4.66156437 C7.65457164,4.30854757 8.4950865,4.50757363 8.5687695,3.79937942 C8.61116421,3.39372564 8.64629306,2.92391087 8.66980296,2.57473541 C9.6552345,2.7288383 9.54676049,1.29583718 8.08151043,1.14245423 C11.0458162,1.17713498 13.5577324,3.0915268 14.4795129,5.74841601 C14.4328932,5.70589337 14.3786554,5.68004676 14.3160151,5.67374124 C13.8730068,4.56717459 12.7977121,5.3679998 13.1624765,6.34402194 C11.2080392,7.84641693 11.7083188,8.89425771 12.350448,9.49431042 C12.6883418,9.80973342 13.0104856,10.284109 13.2202358,10.6248025 C12.9919389,11.2904896 14.0614076,11.0239264 14.5888534,9.89423504 C13.9179486,12.2209819 12.0463597,14.0391893 9.68761217,14.6358793 L9.68760826,14.6358793 Z"></path>
                </g>
            </g>
        </g>
    </g>
</svg>