<?xml version="1.0" encoding="UTF-8"?>
<svg width="30px" height="30px" viewBox="0 0 30 30" version="1.1" xmlns="http://www.w3.org/2000/svg" xmlns:xlink="http://www.w3.org/1999/xlink">
    <title>Icon-default portrait</title>
    <g id="灰鲸中台暗色系" stroke="none" stroke-width="1" fill="none" fill-rule="evenodd">
        <g id="nav_bar" transform="translate(-1380.000000, -10.000000)" fill-rule="nonzero">
            <g id="Icon-default-portrait" transform="translate(1380.000000, 10.000000)">
                <g id="头像备份" transform="translate(0.000000, -0.000000)">
                    <path d="M15.0015666,12.8410735 C9.17217005,12.8410735 4.13270925,10.9814636 1.6529769,8.16204171 L1.65297727,8.16204171 C-2.12389952,15.5335132 0.790687378,24.570716 8.16291225,28.3471963 C15.5351576,32.1236766 24.5733092,29.2093956 28.350186,21.8379447 C29.4374968,19.7158116 30.0030683,17.3650233 30,14.9806045 L30,14.9809906 C30.0008063,12.6092191 29.4352425,10.2715355 28.3503383,8.16236924 C25.8704213,10.9814329 20.83094,12.8410486 15.0015727,12.8410486 L15.0015666,12.8410735 Z" id="路径" fill="#ECEEF4"></path>
                    <g id="a-link" transform="translate(1.652977, 0.000000)" fill="#ECEEF4">
                        <path d="M13.3485892,12.8410746 C19.1779857,12.8410746 24.2174465,10.9414727 26.6971794,8.16204242 L26.6971794,8.1620435 C22.9202733,0.790601345 13.8821218,-2.12368838 6.50990567,1.65282123 C3.71113577,3.08652374 1.43386183,5.36355861 -8.3313512e-16,8.1620435 C2.47973821,10.9814501 7.51922246,12.8410746 13.3485897,12.8410746 L13.3485892,12.8410746 Z" id="a"></path>
                    </g>
                    <g id="a-link" transform="translate(1.652977, 0.000000)" fill="#F7F9FC">
                        <path d="M13.3485892,12.8410746 C19.1779857,12.8410746 24.2174465,10.9414727 26.6971794,8.16204242 L26.6971794,8.1620435 C22.9202733,0.790601345 13.8821218,-2.12368838 6.50990567,1.65282123 C3.71113577,3.08652374 1.43386183,5.36355861 -8.3313512e-16,8.1620435 C2.47973821,10.9814501 7.51922246,12.8410746 13.3485897,12.8410746 L13.3485892,12.8410746 Z" id="a"></path>
                    </g>
                    <path d="M21.6508572,21.2892867 L19.2711068,21.1393181 L18.8911473,29.4475747 L18.8911473,29.4475747 C21.2920828,28.8061372 23.4950416,27.5759094 25.3004793,25.8683231 L24.3005838,23.1988825 L24.3005838,23.1988824 C23.8717385,22.095187 22.8336418,21.3470544 21.6508634,21.2892839 L21.6508572,21.2892867 Z M10.7319913,21.1393181 L8.35224086,21.2892867 L8.35224088,21.2892867 C7.18056925,21.3585327 6.15692117,22.104701 5.73251683,23.1988852 L4.73262055,25.8683258 L4.73262055,25.8683251 C6.56005789,27.5926476 8.79146232,28.8302733 11.2219483,29.4675662 L10.7319913,21.1393181 Z" id="形状" fill="#3C7DFF"></path>
                    <path d="M15.0015666,20.8793827 L10.7320206,21.139328 L11.1919732,29.4675743 L11.1919735,29.4675744 C12.4347153,29.8002018 13.7150925,29.9715731 15.001564,29.9774673 L15.0015647,29.9774673 C16.3159835,29.9758875 17.624226,29.7976624 18.8911513,29.4475789 L19.2711108,21.1393223 L15.0015666,20.8793827 Z" id="路径" fill="#F9F9F9"></path>
                    <path d="M12.431813,14.2707693 L17.5712616,14.2707693 L18.1611984,22.3590818 L18.1611984,22.3590819 C18.197269,22.886819 17.815984,23.351325 17.2912899,23.4188588 L17.2912903,23.4188587 C16.5316792,23.5119475 15.7668005,23.5553642 15.0015318,23.5488316 L15.0015315,23.5488316 C14.2395811,23.5556738 13.4780119,23.5122556 12.7217776,23.4188596 L12.7217776,23.4188596 C12.1970836,23.3513247 11.8157991,22.8868198 11.8518692,22.3590827 L12.4318072,14.2707693 L12.431813,14.2707693 Z" id="路径" fill="#FEB5B5"></path>
                    <path d="M10.7119996,15.9004197 C11.2586083,19.1397309 12.6884571,20.7593865 15.0015373,20.7593865 C17.3146263,20.7593865 18.7444693,19.139728 19.291075,15.9004197 L10.7119996,15.9004197 Z" id="路径" fill="#ED9D9D"></path>
                    <path d="M9.93208897,14.4307447 L9.93208891,14.4307447 C9.18106072,14.4307447 8.57223153,13.8219794 8.57223153,13.0710301 C8.57223153,13.0710301 8.57223153,13.0710301 8.57223153,13.0710301 C8.57223153,12.3211887 8.94219221,11.3114004 9.93208891,11.7113155 C10.9219856,12.1112305 11.2919463,12.3211887 11.2919463,13.0710301 L11.2919463,13.0710301 C11.2919463,13.8219794 10.6831171,14.4307447 9.93208891,14.4307447 C9.93208891,14.4307447 9.93208891,14.4307447 9.93208891,14.4307447 L9.93208897,14.4307447 Z" id="路径" fill="#FEB5B5"></path>
                    <path d="M14.8115869,19.5396694 C17.8812501,19.5396694 19.7110765,16.8202401 19.7110765,13.0710418 C19.7110765,9.32182005 17.7112855,6.28246346 14.7115991,6.28246346 C11.7119068,6.28246346 9.95210998,9.28184086 9.95210998,13.0710418 C9.95210998,16.8602428 11.7519195,19.5396694 14.8115869,19.5396694 Z" id="路径" fill="#FEB5B5"></path>
                    <path d="M19.7010513,14.4307447 L19.7010513,14.4307447 C20.4520795,14.4307447 21.0609087,13.8219794 21.0609087,13.0710301 C21.0609087,13.0710301 21.0609087,13.0710301 21.0609087,13.0710301 C21.0609087,12.3211887 20.6809492,11.3114004 19.7010513,11.7113155 C18.7211534,12.1112305 18.3411939,12.3211887 18.3411939,13.0710301 L18.3411939,13.0710299 C18.3411939,13.8219792 18.9500231,14.4307447 19.7010513,14.4307447 L19.7010513,14.4307447 Z" id="路径" fill="#FEB5B5"></path>
                    <path d="M10.2420482,12.7211066 C10.0020734,12.7211066 8.60221913,9.30183046 9.11216565,7.98210675 C9.46212877,7.1322851 11.361929,6.4224346 14.8115576,5.88254842 C18.0712005,6.32245731 19.8910311,7.03230781 20.3009781,7.98210675 C20.9009136,9.42180321 19.6710433,12.5311468 19.4410684,12.6911222 C19.2110924,12.8510885 19.1610979,9.77173546 18.6011564,9.29183566 C18.0412159,8.81193586 18.9311219,9.94169979 16.4613825,10.4215996 C13.991643,10.9014994 13.0917266,8.64197446 11.6918975,9.29183566 C10.292045,9.94169979 10.4620272,12.7211066 10.2420511,12.7211066 L10.2420482,12.7211066 Z" id="路径" fill="#1E1047"></path>
                    <path d="M14.1816433,4.41284998 C17.4713031,3.59302152 17.4713031,6.5124083 18.3412057,6.6723749 C19.2111141,6.83234121 19.3411012,10.5315687 16.8913593,11.0014708 C14.4416174,11.4713729 13.3517446,9.00188979 11.6919063,8.72195044 C10.0320797,8.44200933 10.8919893,5.23268137 14.1816433,4.41284412 L14.1816433,4.41284998 Z" id="路径" fill="#1E1047"></path>
                </g>
            </g>
        </g>
    </g>
</svg>