<?xml version="1.0" encoding="UTF-8"?>
<svg width="20px" height="20px" viewBox="0 0 20 20" version="1.1" xmlns="http://www.w3.org/2000/svg" xmlns:xlink="http://www.w3.org/1999/xlink">
    <title>Icon-Security Settings</title>
    <g id="灰鲸中台暗色系" stroke="none" stroke-width="1" fill="none" fill-rule="evenodd">
        <g id="nav_bar" transform="translate(-1084.000000, -199.000000)" fill-rule="nonzero">
            <g id="Icon-Security-Settings" transform="translate(1084.000000, 199.000000)">
                <g id="编组-7" transform="translate(3.000000, 3.000000)">
                    <path d="M8.37819938,8.5695 C8.10819938,8.8395 7.78419938,9.0555 7.40619938,9.1635 L7.24419938,9.4875 L6.16419937,9.4875 L6.00219937,9.1095 C5.62419937,9.00150001 5.30019937,8.7855 5.03019937,8.5155 L4.65219938,8.5695 L4.11219938,7.65150001 L4.38219937,7.32750001 C4.27419938,7.16550001 4.27419938,7.00350001 4.27419938,6.7875 C4.27419938,6.5715 4.27419938,6.4095 4.32819938,6.19350001 L4.11219938,5.9235 L4.65219938,5.0055 L5.03019937,5.05950001 C5.30019937,4.78950001 5.62419937,4.57350001 6.00219937,4.4655 L6.16419937,4.08750001 L7.24419938,4.08750001 L7.40619938,4.4655 C7.78419938,4.5735 8.10819938,4.7895 8.37819938,5.05950001 L8.75619937,5.0055 L9.29619937,5.9235 L9.02619938,6.2475 C9.08019938,6.4095 9.08019938,6.6255 9.08019937,6.84150001 C9.08019936,7.05750001 9.08019937,7.21950001 9.02619938,7.4355 L9.29619937,7.7595 L8.75619937,8.6775 L8.37819938,8.5695 L8.37819938,8.5695 Z M6.70419938,8.4075 C7.62219937,8.4075 8.32419937,7.7055 8.32419937,6.7875 C8.32419937,5.86950001 7.62219937,5.1675 6.70419938,5.1675 C5.78619938,5.1675 5.08419938,5.86950001 5.08419938,6.7875 C5.08419938,7.7055 5.78619938,8.4075 6.70419938,8.4075 Z M6.70419938,7.32750001 C6.38019938,7.32750001 6.16419937,7.1115 6.16419937,6.7875 C6.16419937,6.4635 6.38019938,6.2475 6.70419938,6.2475 C7.02819937,6.2475 7.24419938,6.4635 7.24419938,6.7875 C7.24419938,7.1115 7.02819937,7.32750001 6.70419938,7.32750001 L6.70419938,7.32750001 Z" id="形状备份" fill="#3C7DFF"></path>
                    <path d="M6.66964876,15 L6.58114875,14.9895 L6.49114875,14.9685 L6.40864876,14.9385 L5.75014876,14.65425 C2.75243314,13.3681228 0.6852748,10.5606441 0.347148761,7.31625001 L0.325398766,7.07849999 L0.000648760831,2.90175001 C-0.0186332292,2.24359645 0.39354725,1.6498132 1.01689875,1.43775 L1.13464876,1.40325001 L6.51964876,0.0232500058 L6.57364876,0.0120000059 L6.65239876,0.00150001172 L6.70639876,1.43884904e-14 L6.80614875,0.00674999999 L6.85489876,0.0142500058 L12.2698988,1.40175 C12.9156488,1.56074999 13.3746488,2.124 13.4068988,2.80875 L13.4083988,2.9385 L13.0858987,7.07849999 C12.8337978,10.3299415 10.8425135,13.1906193 7.88089876,14.556 L7.66339875,14.6535 L6.95689875,14.9565 L6.89089876,14.97675 L6.78889876,14.9955 L6.74164876,14.99925 L6.66964876,14.99925 L6.66964876,15 Z M6.70458949,1.30540056 L1.28982532,2.69342152 L1.62298156,6.96359505 C1.84025889,9.77161056 3.5540114,12.244579 6.10693684,13.4340042 L6.3269604,13.5323126 L6.70458949,13.6945994 L7.08377903,13.5315323 C9.67114925,12.4212057 11.45961,10.0029968 11.7635709,7.20390447 L11.7861974,6.96281482 L12.1185734,2.69420175 L6.70458949,1.30618079 L6.70458949,1.30540056 Z" id="形状" fill="#121212"></path>
                </g>
            </g>
        </g>
    </g>
</svg>