<?xml version="1.0" encoding="UTF-8"?>
<svg width="24px" height="24px" viewBox="0 0 24 24" version="1.1" xmlns="http://www.w3.org/2000/svg" xmlns:xlink="http://www.w3.org/1999/xlink">
    <title>Icon-collection</title>
    <g id="灰鲸中台暗色系" stroke="none" stroke-width="1" fill="none" fill-rule="evenodd">
        <g id="nav_bar" transform="translate(-1110.000000, -13.000000)" fill="#FFFFFF" fill-rule="nonzero">
            <g id="Icon-collection" transform="translate(1110.000000, 13.000000)">
                <g transform="translate(3.000000, 3.692308)" id="形状">
                    <path d="M8.94575454,2.63455382 L10.1260373,5.41427377 L10.6815107,6.72340527 L12.1074797,6.85478912 L15.1916219,7.13893739 L13.0544254,9.02621743 L12.0097659,9.9493166 L12.3093521,11.3047225 C12.5281497,12.2961094 12.720403,13.2018259 12.8837514,13.9808308 L10.1803355,12.4327016 L8.97724331,11.7439908 L7.77852675,12.4402346 C6.70410428,13.0635338 5.86098828,13.5456242 5.14394976,13.9455274 L5.77728706,11.3817004 L6.12735747,9.96437077 L5.00915941,9.01579404 C4.1958088,8.32654751 3.46533613,7.70727203 2.80837805,7.15630813 L5.72505541,6.89702792 L7.13994012,6.77086149 L7.70443369,5.47794125 L8.94574494,2.63455382 M9.01237231,-1.42108547e-14 C8.78483295,-1.42108547e-14 8.60489255,0.0668211375 8.47476877,0.20340189 C8.34221923,0.337104857 8.2396605,0.500800318 8.16982685,0.686777447 L6.10490843,5.41592611 L0.562369046,5.90946149 C0.432246864,5.93414952 0.312368022,5.99131968 0.204934894,6.08527701 C0.0972743783,6.17972409 0.029662798,6.30854998 0.00720093204,6.47467372 C-0.0177085764,6.63836958 0.0223194686,6.79969833 0.122430961,6.95853943 C0.224969607,7.11693043 0.347296694,7.26077369 0.489635595,7.39251861 L0.687390247,7.55866287 L1.1449156,7.9480815 C1.33240603,8.10645217 1.53993116,8.28275785 1.77479235,8.47601761 L2.48231873,9.06644887 C3.04481049,9.53721581 3.67715598,10.0729048 4.38466227,10.6730077 L3.77479853,13.1431453 C3.68984676,13.4603972 3.60976998,13.7703644 3.53236642,14.0779246 C3.45498416,14.383056 3.38465737,14.6630099 3.32484209,14.9163181 C3.26479982,15.1691559 3.21228609,15.384676 3.1649352,15.5682442 L3.07486156,15.9130804 C3.04970517,16.0172191 3.06241705,16.1213577 3.10976793,16.2206406 C3.15736569,16.3199231 3.2323206,16.406617 3.33485864,16.4759074 C3.43492896,16.5480535 3.54968673,16.5902069 3.67468624,16.6100389 C3.70253734,16.6139156 3.73010038,16.6153846 3.75768392,16.6153846 C3.85388722,16.6153846 3.94885635,16.5921451 4.04236574,16.5480536 C4.1024285,16.5228758 4.21985949,16.4637879 4.39247805,16.3717486 C4.56727709,16.2778116 4.77235378,16.1586553 5.01235934,16.0172208 C5.24991626,15.8757849 5.51750375,15.7246781 5.80997946,15.5585544 C6.10245717,15.3948585 6.39982816,15.2287139 6.69720117,15.065019 C7.39251042,14.6780293 8.16229953,14.2367874 9.01238777,13.74325 L13.6948274,16.4240759 L13.9550709,16.5204816 C14.0673596,16.5625942 14.1547797,16.5824669 14.2148424,16.5824669 C14.3950102,16.5824669 14.5549171,16.5427621 14.6999517,16.4686367 C14.8422922,16.391655 14.8974595,16.2356721 14.8598379,15.9997885 C14.8473934,15.9527997 14.8249316,15.8385205 14.7900047,15.6549524 L14.6547606,14.9957615 C14.5998198,14.7351907 14.5424515,14.4474838 14.4848366,14.130232 C14.4247738,13.8125119 14.3574089,13.4952601 14.2873083,13.1780083 C14.1298493,12.4239021 13.9523559,11.5830598 13.7475052,10.6560255 L17.4623979,7.37511458 C17.6174091,7.19638142 17.744858,7.04768102 17.847416,6.92369095 C17.9499341,6.79972041 18,6.65585742 18,6.49216057 C18,6.31634505 17.9524022,6.1870292 17.8574126,6.10274194 C17.759749,6.02088374 17.5922718,5.95163497 17.3549639,5.89205765 L11.809994,5.38105591 L9.80216981,0.651947094 C9.7772603,0.60495827 9.74478108,0.547808429 9.70232568,0.476131579 C9.65984979,0.406862281 9.60980439,0.334695671 9.54974163,0.265447294 C9.48967887,0.193280684 9.41495015,0.131295414 9.32732454,0.0794709617 C9.23720992,0.0270955794 9.13224392,-1.42108547e-14 9.01234499,-1.42108547e-14"></path>
                </g>
            </g>
        </g>
    </g>
</svg>