<?xml version="1.0" encoding="UTF-8"?>
<svg width="20px" height="20px" viewBox="0 0 20 20" version="1.1" xmlns="http://www.w3.org/2000/svg" xmlns:xlink="http://www.w3.org/1999/xlink">
    <title>Icon-collection-b</title>
    <g id="灰鲸中台暗色系" stroke="none" stroke-width="1" fill="none" fill-rule="evenodd">
        <g id="nav_bar_message" transform="translate(-672.000000, -282.000000)" fill="#3C7DFF" fill-rule="nonzero">
            <g id="Icon-collection-b" transform="translate(672.000000, 282.000000)">
                <g id="收藏备份" transform="translate(2.000000, 3.000000)">
                    <path d="M7.59375815,0 C7.40203517,0 7.25041873,0.0563029955 7.14077739,0.171384926 C7.02909213,0.284042056 6.9426769,0.421970638 6.88383559,0.57867359 L5.14395062,4.56341922 L0.473847992,4.97926848 C0.364208006,5.00007043 0.263198981,5.04824158 0.172676624,5.12740933 C0.0819626706,5.20698974 0.0249936538,5.31553749 0.006067452,5.45551212 C-0.0149211153,5.59344103 0.0188062189,5.72937545 0.103159421,5.86321378 C0.189557724,5.99667286 0.292629622,6.11787413 0.412563325,6.22888143 L0.579189931,6.36887335 L0.964697406,6.6969946 C1.12267545,6.83043655 1.29753459,6.97899041 1.49542689,7.14182965 L2.09158338,7.63932266 C2.56553477,8.03598739 3.09834439,8.48735495 3.69448395,8.99299722 L3.18061728,11.0743169 C3.10903755,11.3416309 3.04156544,11.602807 2.97634578,11.861955 C2.91114406,12.1190564 2.85188723,12.3549436 2.80148732,12.5683791 C2.75089615,12.7814184 2.70664846,12.9630141 2.66675096,13.1176873 L2.59085557,13.4082437 C2.56965899,13.4959901 2.58036992,13.5837366 2.62026742,13.6673916 C2.66037294,13.7510464 2.72352939,13.8240939 2.80992719,13.8824775 C2.89424569,13.9432673 2.99093975,13.9787854 3.09626341,13.9954958 C3.11973053,13.9987622 3.14295495,14 3.16619664,14 C3.24725682,14 3.32727711,13.9804186 3.40606743,13.9432674 C3.45667586,13.9220528 3.55562235,13.8722657 3.70106947,13.7947141 C3.84835385,13.7155634 4.02114995,13.6151633 4.22337685,13.4959916 C4.42354055,13.3768188 4.64900779,13.2494973 4.89544565,13.1095227 C5.14188521,12.9715938 5.39244781,12.8316015 5.64301209,12.6936734 C6.22887452,12.3675987 6.87749312,11.9958116 7.59377118,11.5799607 L11.5391601,13.8388047 L11.7584394,13.9200355 C11.853053,13.9555192 11.9267125,13.9722638 11.9773209,13.9722638 C12.129129,13.9722638 12.2638653,13.9388088 12.3860704,13.8763513 C12.5060055,13.811487 12.552489,13.6800571 12.5207894,13.4813033 C12.5103037,13.4417109 12.4913775,13.3454201 12.4619484,13.1907469 L12.3479928,12.6353175 C12.3017,12.4157625 12.2533619,12.1733428 12.204816,11.9060288 C12.1542076,11.6383202 12.0974464,11.3710062 12.0383802,11.1036922 C11.9057063,10.4682879 11.7561518,9.75980042 11.5835461,8.97868813 L14.7136871,6.21421691 C14.8442984,6.06361768 14.9516859,5.93832382 15.0381005,5.83385071 C15.1244815,5.72939405 15.1666667,5.60817616 15.1666667,5.4702464 C15.1666667,5.32210555 15.1265611,5.21314497 15.0465236,5.14212515 C14.9642329,5.07315204 14.8231179,5.01480354 14.6231641,4.96460413 L9.95101345,4.53403785 L8.25923567,0.549325792 C8.2382471,0.509733357 8.21088035,0.461579325 8.17510775,0.401184941 C8.13931788,0.342819144 8.09714999,0.282012093 8.04654156,0.223663924 C7.99593312,0.162856873 7.93296725,0.110628543 7.85913457,0.0669616436 C7.78320465,0.0228305345 7.69476108,0 7.59373513,0" id="形状"></path>
                </g>
            </g>
        </g>
    </g>
</svg>