<?xml version="1.0" encoding="UTF-8"?>
<svg width="20px" height="20px" viewBox="0 0 20 20" version="1.1" xmlns="http://www.w3.org/2000/svg" xmlns:xlink="http://www.w3.org/1999/xlink">
    <title>Icon-message center</title>
    <g id="页面-1" stroke="none" stroke-width="1" fill="none" fill-rule="evenodd" opacity="0.6">
        <g id="03_1_2消息中心_站内信_点选状态" transform="translate(-20.000000, -365.000000)" fill-rule="nonzero">
            <g id="Icon-message-center" transform="translate(20.000000, 365.000000)">
                <g id="编组" transform="translate(2.000000, 3.000000)">
                    <path d="M3.75488594,9.6774426 L4.14494398,6.36136959 C4.19370124,5.94686046 4.42498192,5.76402607 4.83878604,5.8128664 L4.83878604,5.8128664 C5.25259015,5.86170672 5.43511357,6.09338145 5.38635631,6.50789058 L4.99629828,9.82396356 C4.94754103,10.2384727 4.71626035,10.4213071 4.30245623,10.3724668 L4.30245623,10.3724668 C3.88865212,10.3236265 3.70612868,10.0919517 3.75488594,9.6774426 Z" id="路径" fill="#3860F4"></path>
                    <path d="M14.375,11.223544 L14,11.223544 L13.1583333,4.96289558 C12.7804591,2.12188056 10.3612449,7.11753315e-16 7.5,7.11753315e-16 C4.6387551,7.11753315e-16 2.21954089,2.12188056 1.84166666,4.96289558 L1.00833334,11.2652816 L0.625,11.2652816 C0.279822031,11.2652816 0,11.5455804 0,11.8913464 C0,12.2371125 0.279822031,12.5174113 0.625,12.5174113 L14.375,12.5174113 C14.720178,12.5174113 15,12.2371125 15,11.8913464 C15,11.5455804 14.720178,11.2652816 14.375,11.2652816 L14.375,11.223544 Z M2.25833334,11.2235445 L3.09166666,5.08810855 C3.39577717,2.87349439 5.28500145,1.22354453 7.51666666,1.22354453 C9.74833187,1.22354453 11.6375561,2.87349439 11.9416667,5.08810855 L12.775,11.2235445 L2.25833334,11.2235445 Z" id="形状" fill="#FFFFFF"></path>
                    <path d="M9.10833334,12.4756736 C8.91108427,13.2027271 8.25214179,13.7073521 7.5,13.7073521 C6.74785821,13.7073521 6.08891573,13.2027271 5.89166666,12.4756736 L4.625,12.4756736 C4.81560685,13.9203469 6.04524287,15 7.5,15 C8.95475713,15 10.1843932,13.9203469 10.375,12.4756736 L9.10833334,12.4756736 Z" id="路径" fill="#FFFFFF"></path>
                </g>
            </g>
        </g>
    </g>
</svg>