<?xml version="1.0" encoding="UTF-8"?>
<svg width="20px" height="20px" viewBox="0 0 20 20" version="1.1" xmlns="http://www.w3.org/2000/svg" xmlns:xlink="http://www.w3.org/1999/xlink">
    <title>Icon-Cloud platform</title>
    <g id="灰鲸中台暗色系" stroke="none" stroke-width="1" fill="none" fill-rule="evenodd">
        <g id="nav_bar_message" transform="translate(-560.000000, -251.000000)" fill="#FFFFFF" fill-rule="nonzero">
            <g id="Icon-Cloud-platform" transform="translate(560.000000, 251.000000)">
                <g transform="translate(2.000000, 3.600000)" id="形状">
                    <path d="M12.8864731,5.28789538 C12.8985943,5.15241528 12.9042509,5.01610267 12.9042509,4.87979131 C12.9042509,2.18846421 10.683646,0 7.95394898,0 C5.22425191,0 3.00283278,2.18846421 3.00283278,4.87979131 C3.00283278,5.02219892 3.00929743,5.16432778 3.02222668,5.30618165 C1.29293445,5.67605193 0,7.19625812 0,9.00987204 C0,11.1002612 1.72121063,12.8 3.83676687,12.8 L12.1600005,12.8 C14.2787894,12.8 16,11.1002612 16,9.00987204 C16,7.1646706 14.6577739,5.62285689 12.8864695,5.28789413 L12.8864731,5.28789538 Z M12.1632404,11.3039004 L3.84000681,11.3039004 C2.52283971,11.3039004 1.45454943,10.2749118 1.45454943,9.00987329 C1.45454943,7.7448348 2.52283242,6.7166715 3.83677417,6.7166715 L4.84849203,6.7166715 L4.57859333,5.7624895 L4.57859335,5.76248956 C4.49860459,5.47545684 4.45780989,5.17837786 4.45738114,4.87978762 C4.45738114,3.01381117 6.02586776,1.49609748 7.95394304,1.49609748 C9.88203047,1.49609748 11.4497029,3.01381117 11.4497029,4.87978762 L11.4497029,4.87974914 C11.4492777,5.17833937 11.4084864,5.47541961 11.328501,5.76245233 L11.0626419,6.71663433 L12.1632489,6.71663433 C13.4771833,6.71663433 14.5454736,7.74562263 14.5454736,9.00983612 C14.5454736,10.2740496 13.4771797,11.3039004 12.1632367,11.3039004 L12.1632404,11.3039004 Z"></path>
                </g>
            </g>
        </g>
    </g>
</svg>