<?xml version="1.0" encoding="UTF-8"?>
<svg width="20px" height="20px" viewBox="0 0 20 20" version="1.1" xmlns="http://www.w3.org/2000/svg" xmlns:xlink="http://www.w3.org/1999/xlink">
    <title>Icon-enterprise management</title>
    <g id="灰鲸中台暗色系" stroke="none" stroke-width="1" fill="none" fill-rule="evenodd">
        <g id="nav_bar" transform="translate(-1084.000000, -119.000000)" fill-rule="nonzero">
            <g id="Icon-enterprise-management" transform="translate(1084.000000, 119.000000)">
                <g id="编组" transform="translate(2.000000, 3.000000)">
                    <path d="M15.1649522,4.9607673 L15.1649522,2.57601086 C15.1649522,2.23919998 14.892457,1.96670474 14.5556461,1.96670474 L8.89925433,1.96670474 L6.90716184,0.15740408 C6.79545571,0.0558530607 6.64989925,0 6.49757272,0 L0.610998633,0 C0.274187752,0 0.00169251699,0.272495235 0.00169251699,0.609306116 L0.00169251699,4.99292512 C-2.46293638e-15,5.00985029 -2.46293638e-15,5.02846798 -2.46293638e-15,5.04708566 L-2.46293638e-15,12.3909169 C-2.46293638e-15,12.5533985 0.0643156456,12.7091101 0.179406801,12.8225087 C0.292805439,12.9359074 0.448517002,13.000223 0.609306116,13.000223 L0.61269115,13.000223 L14.5607237,12.9325223 C14.895842,12.9308298 15.1666447,12.6583346 15.1666447,12.3232162 L15.1666447,4.97938498 C15.1649522,4.97261492 15.1649522,4.96753737 15.1649522,4.9607673 Z M13.94634,11.7156026 L1.21691972,11.7782257 L1.21691972,5.10124621 C1.21861223,5.08432104 1.21861223,5.06570335 1.21861223,5.04708566 L1.21861223,1.21861223 L6.26062035,1.21861223 L8.25271284,3.02622038 C8.36441896,3.1277714 8.50997543,3.18362446 8.66230195,3.18362446 L13.9446475,3.18362446 L13.9446475,11.7156026 L13.94634,11.7156026 Z" id="形状" fill="#121212"></path>
                    <path d="M8.87894413,3.17142141 L8.87894413,8.27762669 C8.87894413,8.3953751 9.02279115,8.46383741 9.12259888,8.38716639 L10.1676435,7.59031247 C10.2204839,7.54923508 10.2938714,7.54923508 10.3496398,7.58757059 L11.5297304,8.40906756 C11.6295381,8.47752987 11.7675121,8.41180944 11.7675121,8.29406103 L11.7675121,3.17142141 L8.87894413,3.17142141 L8.87894413,3.17142141 Z" id="路径" fill="#3C7DFF"></path>
                </g>
            </g>
        </g>
    </g>
</svg>