<?xml version="1.0" encoding="UTF-8"?>
<svg width="20px" height="20px" viewBox="0 0 20 20" version="1.1" xmlns="http://www.w3.org/2000/svg" xmlns:xlink="http://www.w3.org/1999/xlink">
    <title>Icon-About our product</title>
    <g id="灰鲸中台暗色系" stroke="none" stroke-width="1" fill="none" fill-rule="evenodd">
        <g id="菜单样式" transform="translate(-20.000000, -65.000000)" fill-rule="nonzero">
            <g id="Icon-About-our-product备份" transform="translate(20.000000, 65.000000)">
                <g id="编组" transform="translate(1.000000, 1.000000)">
                    <path d="M7.50605668,4.94679465 C7.50605668,5.48269307 7.79195506,5.9778836 8.25605668,6.2458328 C8.72015829,6.513782 9.29195507,6.513782 9.75605669,6.2458328 C10.2201583,5.9778836 10.5060567,5.48269307 10.5060567,4.94679465 C10.5060567,4.41089629 10.2201583,3.91570575 9.75605669,3.64775655 C9.29195507,3.37980736 8.72015829,3.37980736 8.25605668,3.64775655 C7.79195506,3.91570575 7.50605668,4.41089629 7.50605668,4.94679465 L7.50605668,4.94679465 Z" id="路径" fill="#3C7DFF"></path>
                    <path d="M17.8407362,4.67121567 L9.67834834,0.189271299 C9.2644751,-0.0630904331 8.74561937,-0.0630904331 8.33376503,0.189271299 L0.171377156,4.67121567 C-0.0345500176,4.79638708 -0.0345500176,5.09720227 0.171377156,5.22237369 L8.33376503,9.70431806 C8.74763827,9.95667979 9.26649399,9.95667979 9.67834834,9.70431806 L17.8407362,5.22237369 C18.0466634,5.09720227 18.0466634,4.79840598 17.8407362,4.67121567 Z M8.34587839,7.99633385 L2.64855992,5.0871078 C2.54357744,5.02452209 2.54357744,4.87310505 2.64855992,4.81051934 L8.34587839,1.8992744 C8.75369495,1.65700713 9.26043731,1.65700713 9.66825387,1.8992744 L15.3635534,4.81051934 C15.4685359,4.87310505 15.4685359,5.02452209 15.3635534,5.0871078 L9.66623497,7.99633385 C9.26043731,8.23860111 8.75167606,8.23860111 8.34587839,7.99633385 L8.34587839,7.99633385 Z" id="形状" fill="#FFFFFF"></path>
                    <path d="M15.1495507,8.22043107 L15.4806493,8.43241492 C15.5311216,8.46471723 15.5291027,8.5394163 15.4786304,8.56969971 L9.66017829,11.5516059 C9.25236173,11.7938732 8.74561937,11.7938732 8.33780281,11.5516059 L2.52136961,8.56969971 C2.46887837,8.5394163 2.46887837,8.46471723 2.51935071,8.43241492 L2.85650599,8.21639328 C2.94735621,8.15784536 2.94735621,8.02459836 2.85650599,7.96403155 L1.87936136,7.33817445 C1.77235999,7.26953206 1.6370941,7.26953206 1.53211162,7.33817445 L0.149169324,8.22244996 C-0.0527200623,8.35165917 -0.0486822746,8.64641767 0.155226005,8.7695702 L8.32770835,13.2595901 C8.74158159,13.5119519 9.26043731,13.5119519 9.67229165,13.2595901 L17.844774,8.7695702 C18.0486823,8.64439878 18.0527201,8.34964028 17.8508307,8.22244996 L16.475964,7.34221224 C16.3689626,7.27356985 16.2336967,7.27356985 16.1287142,7.34221224 L15.1515696,7.96806934 C15.0566816,8.02863615 15.0566816,8.16188315 15.1495507,8.22043107 Z" id="路径" fill="#FFFFFF"></path>
                    <path d="M15.1495507,11.9337384 L15.4806493,12.1457223 C15.5311216,12.1780246 15.5291027,12.2527236 15.4786304,12.283007 L9.66017829,15.2649133 C9.25236173,15.5071805 8.74561937,15.5071805 8.33780281,15.2649133 L2.52136961,12.283007 C2.46887837,12.2527236 2.46887837,12.1780246 2.51935071,12.1457223 L2.85650599,11.9297006 C2.94735621,11.8711527 2.94735621,11.7379057 2.85650599,11.6773389 L1.87936136,11.0514818 C1.77235999,10.9828394 1.6370941,10.9828394 1.53211162,11.0514818 L0.149169324,11.9357573 C-0.0527200623,12.0649665 -0.0486822746,12.359725 0.155226005,12.4828775 L8.32770835,16.9728975 C8.74158159,17.2252592 9.26043731,17.2252592 9.67229165,16.9728975 L17.844774,12.4828775 C18.0486823,12.3577061 18.0527201,12.0629476 17.8508307,11.9357573 L16.475964,11.0555196 C16.3689626,10.9868772 16.2336967,10.9868772 16.1287142,11.0555196 L15.1515696,11.6813767 C15.0566816,11.7419435 15.0566816,11.8751905 15.1495507,11.9337384 Z" id="路径" fill="#FFFFFF"></path>
                </g>
            </g>
        </g>
    </g>
</svg>