<?xml version="1.0" encoding="UTF-8"?>
<svg width="20px" height="20px" viewBox="0 0 20 20" version="1.1" xmlns="http://www.w3.org/2000/svg" xmlns:xlink="http://www.w3.org/1999/xlink">
    <title>Icon-delete</title>
    <g id="灰鲸中台暗色系" stroke="none" stroke-width="1" fill="none" fill-rule="evenodd">
        <g id="nav_bar_message" transform="translate(-180.000000, -165.000000)" fill="#3C7DFF" fill-rule="nonzero">
            <g id="Icon-delete-b" transform="translate(180.000000, 165.000000)">
                <g id="错误" transform="translate(5.000000, 5.000000)">
                    <path d="M9.80407773,0.195922268 C10.0653074,0.457151959 10.0653074,0.881915684 9.80407773,1.14314538 L1.14314538,9.80407773 C0.881915684,10.0653074 0.457151959,10.0653074 0.195922268,9.80407773 C-0.0653074227,9.54284804 -0.0653074227,9.11808432 0.195922268,8.85685462 L8.85685462,0.195922268 C9.11808432,-0.0653074227 9.54284804,-0.0653074227 9.80407773,0.195922268 Z" id="路径"></path>
                    <path d="M0.195922268,0.195922268 C0.457151959,-0.0653074227 0.881915684,-0.0653074227 1.14314538,0.195922268 L9.80407773,8.85685462 C10.0653074,9.11808432 10.0653074,9.54284804 9.80407773,9.80407773 C9.54284804,10.0653074 9.11808432,10.0653074 8.85685462,9.80407773 L0.195922268,1.14314538 C-0.0653074227,0.881915684 -0.0653074227,0.457151959 0.195922268,0.195922268 Z" id="路径"></path>
                </g>
            </g>
        </g>
    </g>
</svg>