<?xml version="1.0" encoding="UTF-8"?>
<svg width="20px" height="20px" viewBox="0 0 20 20" version="1.1" xmlns="http://www.w3.org/2000/svg" xmlns:xlink="http://www.w3.org/1999/xlink">
    <title>Icon-Log out</title>
    <g id="灰鲸中台暗色系" stroke="none" stroke-width="1" fill="none" fill-rule="evenodd">
        <g id="nav_bar" transform="translate(-1084.000000, -239.000000)" fill-rule="nonzero">
            <g id="Icon-Log-out" transform="translate(1084.000000, 239.000000)">
                <g id="编组" transform="translate(3.000000, 3.000000)">
                    <path d="M7,0 C7.42,0 7.89275502,0.28 7.89275502,0.7 L7.89275502,4.9 C7.89275502,5.32 7.42,5.6 7,5.6 C6.58,5.6 6.1607278,5.32 6.1607278,4.9 L6.1607278,0.7 C6.1607278,0.28 6.58,0 7,0 Z" id="路径" fill="#4E78FE"></path>
                    <path d="M7,14 C3.15,14 0,10.85 0,7 C0,4.83 0.98,2.87 2.66,1.54 C2.94,1.33 3.43,1.33 3.64,1.68 C3.85,1.96 3.78,2.38 3.5,2.59 C2.17,3.71 1.4,5.32 1.4,7 C1.4,10.08 3.92,12.6 7,12.6 C10.08,12.6 12.6,10.08 12.6,7 C12.6,5.25 11.83,3.71 10.5,2.59 C10.22,2.38 10.15,1.89 10.36,1.61 C10.57,1.33 11.06,1.26 11.34,1.47 C13.02,2.87 14,4.83 14,7 C14,10.85 10.85,14 7,14 Z" id="路径" fill="#121212"></path>
                </g>
            </g>
        </g>
    </g>
</svg>