<?xml version="1.0" encoding="UTF-8"?>
<svg width="20px" height="20px" viewBox="0 0 20 20" version="1.1" xmlns="http://www.w3.org/2000/svg" xmlns:xlink="http://www.w3.org/1999/xlink">
    <title>Icon-an</title>
    <g id="灰鲸中台暗色系" stroke="none" stroke-width="1" fill="none" fill-rule="evenodd">
        <g id="nav_bar_message" transform="translate(-190.000000, -65.000000)" fill="#FFFFFF">
            <g id="Icon-an" transform="translate(190.000000, 65.000000)">
                <g id="Group-52-Copy-11" transform="translate(10.000000, 10.000000) rotate(-90.000000) translate(-10.000000, -10.000000) translate(4.985058, 7.000666)">
                    <path d="M9.87478506,0.12040486 C10.067173,0.293631718 10.0827061,0.590021053 9.90947922,0.782408969 L5.44143808,5.74739629 C5.41629464,5.79547599 5.38231488,5.83997381 5.33962881,5.87840852 C5.25358866,5.95587942 5.14674742,5.99559687 5.03942443,5.99862576 C5.031524,5.99806401 5.0234933,5.99846887 5.01545645,5.99866828 C5.0070566,5.99850209 4.99869237,5.99808929 4.99034407,5.99745413 C4.88313666,5.99559687 4.77629543,5.95587942 4.69025528,5.87840852 C4.64756921,5.83997381 4.61358944,5.79547599 4.588446,5.74739629 L0.12040486,0.782408969 C-0.0528219971,0.590021053 -0.0372888903,0.293631718 0.155099026,0.12040486 C0.347486942,-0.0528219971 0.643876277,-0.0372888903 0.817103134,0.155099026 L0.817103134,0.155099026 L5.015,4.817 L9.21278095,0.155099026 C9.38600781,-0.0372888903 9.68239714,-0.0528219971 9.87478506,0.12040486 Z" id="Combined-Shape"></path>
                </g>
            </g>
        </g>
    </g>
</svg>