<?xml version="1.0" encoding="UTF-8"?>
<svg width="140px" height="36px" viewBox="0 0 140 36" version="1.1" xmlns="http://www.w3.org/2000/svg" xmlns:xlink="http://www.w3.org/1999/xlink">
    <title>LOGO</title>
    <defs>
        <linearGradient x1="0%" y1="100%" x2="100%" y2="100%" id="linearGradient-1">
            <stop stop-color="#5EABFB" offset="0%"></stop>
            <stop stop-color="#1664FF" offset="100%"></stop>
        </linearGradient>
        <linearGradient x1="0%" y1="100%" x2="100%" y2="100%" id="linearGradient-2">
            <stop stop-color="#5EABFB" offset="0%"></stop>
            <stop stop-color="#1664FF" offset="100%"></stop>
        </linearGradient>
        <linearGradient x1="0%" y1="100%" x2="100%" y2="100%" id="linearGradient-3">
            <stop stop-color="#5EABFB" offset="0%"></stop>
            <stop stop-color="#1664FF" offset="100%"></stop>
        </linearGradient>
        <linearGradient x1="0%" y1="100%" x2="100%" y2="100%" id="linearGradient-4">
            <stop stop-color="#5EABFB" offset="0%"></stop>
            <stop stop-color="#1664FF" offset="100%"></stop>
        </linearGradient>
        <linearGradient x1="0%" y1="100%" x2="100%" y2="100%" id="linearGradient-5">
            <stop stop-color="#5EABFB" offset="0%"></stop>
            <stop stop-color="#1664FF" offset="100%"></stop>
        </linearGradient>
        <linearGradient x1="0%" y1="100%" x2="100%" y2="100%" id="linearGradient-6">
            <stop stop-color="#5EABFB" offset="0%"></stop>
            <stop stop-color="#1664FF" offset="100%"></stop>
        </linearGradient>
    </defs>
    <g id="灰鲸中台暗色系" stroke="none" stroke-width="1" fill="none" fill-rule="evenodd">
        <g id="nav_bar" transform="translate(-74.000000, -7.000000)">
            <g id="LOGO" transform="translate(74.000000, 7.000000)">
                <g transform="translate(-0.000000, 5.000000)">
                    <g id="图形" transform="translate(-0.000000, -0.000000)">
                        <path d="M0.542210367,9.49786508 C0.542210367,9.49786508 4.50319075,6.96161492 8.05655224,5.76446492 C11.6104623,4.56731492 20.9560719,0.983627823 31.2304819,0.29106629 C41.504892,-0.401495243 43.9434734,0.359268907 43.9434734,0.359268907 C43.9434734,0.359268907 44.1744392,0.457414136 43.7026327,0.957012168 C43.2313747,1.45605571 40.4021814,4.86674105 38.4694205,6.61228445 C36.5372082,8.35727335 34.1112448,8.44044728 34.1112448,8.44044728 C34.1112448,8.44044728 32.8203602,8.72822905 27.0143969,7.51888021 C27.0143969,7.51888021 21.6599414,6.5080398 19.7370555,6.60729401 C17.8147182,6.70599373 12.3620611,6.22025802 1.56811526,9.51838132 C1.56811526,9.51838132 0.456078245,10.2525298 0.542210367,9.49786508" id="Fill-1" fill="url(#linearGradient-1)"></path>
                        <path d="M28.3376496,10.4273614 C28.3376496,10.4273614 28.5170458,10.6303058 28.2218924,10.726233 L22.5240057,9.35053634 C22.5240057,9.35053634 21.9331503,8.88088092 22.513582,8.39070927 C22.513582,8.39070927 22.8932217,8.19830026 23.1466806,8.39070927 L28.3376496,10.4273614 Z" id="Fill-3" fill="url(#linearGradient-2)"></path>
                        <path d="M15.5274989,9.60804281 C15.5274989,9.60804281 14.9179907,9.38347322 15.1275606,8.85060561 C15.1275606,8.85060561 15.432589,8.14418176 16.1754099,8.70920995 C16.1754099,8.70920995 22.3280962,11.1162633 22.6632983,11.1811389 L27.5514334,12.8368545 C27.5514334,12.8368545 30.5819674,13.6841195 31.0076905,13.7489952 C31.0076905,13.7489952 31.5058304,13.9109071 31.0548712,14.1437941 C31.0548712,14.1437941 28.8022693,13.802781 24.0298914,12.4193214 C24.0298914,12.4193214 17.7537674,10.5357093 15.5274989,9.60804281" id="Fill-5" fill="url(#linearGradient-3)"></path>
                        <path d="M8.42878565,9.69986682 C8.42878565,9.69986682 7.90815263,9.3461004 8.25816724,8.83929396 C8.25816724,8.83929396 8.58020263,8.43728667 9.04432858,8.77220033 C9.04432858,8.77220033 20.070886,13.6345479 23.7838937,14.6747764 C23.7838937,14.6747764 29.193759,16.6321361 34.8867082,17.8448119 C34.8867082,17.8448119 35.7244391,18.1370296 34.8033192,18.2152131 C34.8033192,18.2152131 32.8019817,18.1065325 26.021683,16.1031499 C19.2419329,14.1003218 15.5574531,12.5532869 8.42878565,9.69986682" id="Fill-7" fill="url(#linearGradient-4)"></path>
                        <path d="M4.01229252,10.7070476 C4.01229252,10.7070476 3.51799289,10.4486539 3.6710557,9.99175184 C3.6710557,9.99175184 3.9442646,9.33689582 4.51536994,9.7244863 C4.51536994,9.7244863 17.8455502,15.9375784 24.2160355,18.011936 C24.2160355,18.011936 29.8085887,20.0530241 37.3344515,21.7253744 C37.3344515,21.7253744 38.3691342,22.024246 37.2433818,22.0752594 C37.2433818,22.0752594 25.5733022,19.6055484 19.0267124,16.9012869 C12.4795739,14.1964709 9.60704016,13.4889381 4.01229252,10.7070476" id="Fill-9" fill="url(#linearGradient-5)"></path>
                        <path d="M0.191811728,11.7090716 C0.191811728,11.7090716 -0.196605739,11.2704677 0.132012994,10.8324184 C0.461180339,10.3938146 1.31317515,11.0436802 1.31317515,11.0436802 C1.31317515,11.0436802 12.4922468,17.2750705 21.8032938,20.2161004 C21.8032938,20.2161004 33.1540811,23.9384107 36.9707764,24.4208195 L43.3840535,25.5991167 C43.3840535,25.5991167 43.9041379,25.9068602 43.0976779,25.9977971 C42.2901207,26.0881794 27.6608267,23.3855814 18.9976908,20.0724868 C10.3340062,16.7588377 4.84788382,14.4687823 0.191811728,11.7090716" id="Fill-11" fill="url(#linearGradient-6)"></path>
                    </g>
                    <path d="M55.5750407,20.4492188 C56.9902947,20.4492188 57.743575,19.6516927 57.8348817,18.0566406 L57.8348817,18.0566406 L58.5881621,8.34960938 L69.750407,8.34960938 L69.750407,6.29882812 L58.7251221,6.29882812 L58.7251221,5 L55.9174409,5 L55.9174409,6.23046875 L54.06848,6.23046875 L54.06848,8.34960938 L55.8489608,8.34960938 L55.0956805,17.7832031 C55.0500271,18.1933594 54.8674137,18.3984375 54.5478402,18.3984375 L54.5478402,18.3984375 L54,18.3984375 L54,20.4492188 L55.5750407,20.4492188 Z M67.3033873,20.5908203 L67.490566,20.5859375 L69.681927,20.5859375 L69.681927,18.5351562 L68.4492865,18.5351562 C67.9470996,18.5807292 67.6046994,18.3984375 67.422086,17.9882812 L67.422086,17.9882812 L65.093765,13.75 L65.093765,9.30664062 L62.4915238,9.30664062 L62.4915238,13.75 L60.2316828,18.125 C60.1403761,18.3072917 59.934936,18.3984375 59.6153625,18.3984375 L59.6153625,18.3984375 L58.3142419,18.3984375 L58.3142419,20.4492188 L60.779523,20.4492188 C61.5099767,20.4492188 62.0578169,20.1074219 62.4230438,19.4238281 L62.4230438,19.4238281 L63.9296044,16.6210938 L65.6416052,19.765625 C65.9155253,20.3580729 66.5318456,20.6315104 67.490566,20.5859375 L67.3033873,20.5908203 Z M60.4111258,13.8221571 L60.5740829,13.8183594 L62.0121636,13.8183594 L62.0121636,12.109375 C61.5099767,12.1549479 61.2817099,12.0182292 61.3273633,11.6992188 L61.3273633,11.6992188 L60.9164831,9.85351562 L58.5881621,9.85351562 L58.9990422,12.7246094 C59.0446956,13.499349 59.5697092,13.8639323 60.5740829,13.8183594 L60.4111258,13.8221571 Z M67.0796859,13.8867188 C68.1753663,13.9322917 68.8145133,13.5677083 68.9971267,12.7929688 L68.9971267,12.7929688 L69.750407,9.921875 L67.422086,9.921875 L66.8742458,11.5625 C66.8285924,11.8359375 66.6003256,11.9498698 66.1894455,11.9042969 L66.1894455,11.9042969 L65.5046451,11.9042969 L65.5046451,13.8867188 L67.0796859,13.8867188 Z M93.0564441,7.734375 L93.0564441,5.61523438 L90.385723,5.61523438 L90.385723,5.06835938 L87.8519618,5.06835938 L87.8519618,5.61523438 L85.3866807,5.61523438 L85.3866807,7.734375 L93.0564441,7.734375 Z M83.6061999,17.9199219 C84.4279603,17.9654948 84.8388405,17.5325521 84.8388405,16.6210938 L84.8388405,16.6210938 L84.8388405,9.1015625 L83.88012,9.1015625 L84.9073205,7.39257813 L84.9073205,5.68359375 L80.8669987,5.68359375 L81.0724388,5.13671875 L78.5386776,5.13671875 L78.1962775,6.09375 C78.0593174,6.45833333 77.876704,6.61783854 77.6484373,6.57226563 L77.6484373,6.57226563 L77.3745171,6.57226563 L77.3745171,8.34960938 L79.1549979,8.34960938 C79.7484915,8.39518229 80.136545,8.21289062 80.3191584,7.80273438 L80.3191584,7.80273438 L82.0996392,7.80273438 L81.3463589,9.1015625 L77.4429972,9.1015625 L77.4429972,17.9199219 L83.6061999,17.9199219 Z M89.2900425,20.6542969 C90.0661495,20.6998698 90.4313763,20.3352865 90.385723,19.5605469 L90.385723,19.5605469 L90.385723,14.296875 L91.9607637,14.296875 C92.7368707,14.3880208 93.1020975,13.9778646 93.0564441,13.0664063 L93.0564441,13.0664063 L93.0564441,8.5546875 L85.3866807,8.5546875 L85.3866807,14.3652344 L88.194362,14.3652344 L88.194362,18.7402344 C88.194362,19.0136719 88.0345752,19.1503906 87.7150018,19.1503906 L87.7150018,19.1503906 L87.7150018,20.6542969 L89.2900425,20.6542969 Z M90.1883673,12.4573432 L90.1118028,12.4511719 L87.7834818,12.4511719 L87.7834818,10.5371094 L90.591163,10.5371094 L90.591163,11.8359375 C90.591163,12.2916667 90.4313763,12.4967448 90.1118028,12.4511719 L90.1883673,12.4573432 Z M80.3191584,12.5878906 L79.360438,12.5878906 L79.360438,11.015625 L80.3191584,11.015625 L80.3191584,12.5878906 Z M82.9898796,12.5878906 L81.8941992,12.5878906 L81.8941992,11.015625 L82.9898796,11.015625 L82.9898796,12.5878906 Z M80.3191584,16.0742188 L79.360438,16.0742188 L79.360438,14.296875 L80.3191584,14.296875 L80.3191584,16.0742188 Z M82.5937142,16.0809982 L82.5105194,16.0742188 L81.8941992,16.0742188 L81.8941992,14.296875 L82.9898796,14.296875 L82.9898796,15.5273438 C82.9898796,15.9375 82.8300929,16.1197917 82.5105194,16.0742188 L82.5937142,16.0809982 Z M93.0564441,20.4492188 L93.0564441,18.671875 C92.7368707,18.7174479 92.5770839,18.5807292 92.5770839,18.2617188 L92.5770839,18.2617188 L92.2346838,14.9804688 L90.522683,14.9804688 L90.9335632,19.4921875 C90.9792166,20.1302083 91.2759633,20.4492188 91.8238036,20.4492188 L91.8238036,20.4492188 L93.0564441,20.4492188 Z M86.6193213,20.5175781 C87.0758548,20.5175781 87.3269482,20.2213542 87.3726016,19.6289062 L87.3726016,19.6289062 L88.0574019,14.9804688 L86.2769211,14.9804688 L85.7290809,18.3984375 C85.7290809,18.671875 85.5692941,18.8085938 85.2497207,18.8085938 L85.2497207,18.8085938 L85.2497207,20.5175781 L86.6193213,20.5175781 Z M84.8388405,20.5859375 L84.8388405,18.7402344 L77.5799572,18.7402344 L77.5799572,20.5859375 L84.8388405,20.5859375 Z M106.090477,12.7246094 C106.181783,12.8613281 106.432877,12.906901 106.843757,12.8613281 L106.843757,12.8613281 L108.829678,12.8613281 L108.829678,10.9472656 L107.665517,10.9472656 C107.437251,10.9928385 107.254637,10.9244792 107.117677,10.7421875 L107.117677,10.7421875 L106.501357,10.1953125 L108.761198,10.1953125 L108.761198,8.34960938 L106.432877,8.34960938 L106.432877,7.66601562 L108.829678,7.66601562 L108.829678,5.75195312 L104.515436,5.75195312 L104.652396,5.13671875 L102.118635,5.13671875 L101.776235,5.68359375 C101.684928,5.8203125 101.570795,5.86588542 101.433835,5.8203125 L101.433835,5.8203125 L100.885994,5.8203125 L100.885994,7.80273438 L102.050155,7.80273438 C102.461035,7.84830729 102.734955,7.80273438 102.871915,7.66601562 L102.871915,7.66601562 L103.762156,7.66601562 L103.762156,8.34960938 L100.885994,8.34960938 L100.885994,10.1953125 L103.625196,10.1953125 L103.008875,10.8105469 C102.871915,10.9928385 102.734955,11.0611979 102.597995,11.015625 L102.597995,11.015625 L100.954474,11.015625 L100.954474,12.8613281 L103.419755,12.8613281 C103.830636,12.8613281 104.104556,12.7929688 104.241516,12.65625 L104.241516,12.65625 L105.063276,11.6992188 L106.090477,12.7246094 Z M115.129841,12.7929688 C115.951601,12.8841146 116.362481,12.405599 116.362481,11.3574219 L116.362481,11.3574219 L116.362481,5.2734375 L109.309038,5.2734375 L109.309038,12.7929688 L115.129841,12.7929688 Z M113.76024,10.9472656 L111.774319,10.9472656 L111.774319,7.32421875 L113.96568,7.32421875 L113.96568,10.6738281 C113.96568,10.8561198 113.8972,10.9472656 113.76024,10.9472656 L113.76024,10.9472656 Z M114.51352,20.5859375 C115.563548,20.5859375 116.088561,19.9707031 116.088561,18.7402344 L116.088561,18.7402344 L116.088561,13.203125 L101.228394,13.203125 L101.228394,20.5859375 L114.51352,20.5859375 Z M113.48632,16.0742188 L103.693676,16.0742188 L103.693676,15.1855469 L113.48632,15.1855469 L113.48632,16.0742188 Z M113.26055,18.8876343 L113.2124,18.8769531 L103.693676,18.8769531 L103.693676,17.9199219 L113.41784,17.9199219 L113.41784,18.6035156 C113.41784,18.8313802 113.34936,18.922526 113.2124,18.8769531 L113.26055,18.8876343 Z M139.394598,20.9960938 L139.394598,19.1503906 L139.189158,19.1503906 C138.960891,19.1503906 138.846758,19.0592448 138.846758,18.8769531 L138.846758,18.8769531 L138.846758,8.62304688 L132.341155,8.62304688 L132.341155,18.671875 C132.341155,18.9908854 132.204195,19.1276042 131.930275,19.0820312 L131.930275,19.0820312 L131.656355,19.0820312 L131.656355,5.88867188 L128.300833,5.88867188 L128.437793,5.20507812 L126.314912,5.20507812 L126.109472,5.88867188 L124.465952,5.88867188 L124.465952,12.5195312 L123.918111,12.5195312 L123.918111,14.5019531 L124.397472,14.5019531 L124.397472,18.6035156 C124.397472,18.8769531 124.306165,19.0136719 124.123551,19.0136719 L124.123551,19.0136719 L123.849631,19.0136719 L123.849631,20.9277344 L124.945312,20.9277344 C125.812725,20.8821615 126.269259,20.3352865 126.314912,19.2871094 L126.314912,19.2871094 L126.314912,14.5019531 L129.738914,14.5019531 L129.738914,18.4667969 C129.738914,18.922526 129.533474,19.1276042 129.122594,19.0820312 L129.122594,19.0820312 L127.752993,19.0820312 L127.752993,20.9277344 L129.807394,20.9277344 C130.948728,20.9733073 131.565048,20.4720052 131.656355,19.4238281 L131.656355,19.4238281 L131.656355,20.9277344 L132.820515,20.9277344 C133.916196,20.9277344 134.464036,20.3580729 134.464036,19.21875 L134.464036,19.21875 L134.464036,10.6054688 L136.792357,10.6054688 L136.792357,19.3554688 C136.746704,20.4492188 137.317371,20.9960938 138.504358,20.9960938 L138.504358,20.9960938 L139.394598,20.9960938 Z M139.600038,7.87109375 L139.600038,5.88867188 L136.723877,5.88867188 L136.723877,5.2734375 L134.464036,5.2734375 L134.464036,5.88867188 L132.135715,5.88867188 L132.135715,7.87109375 L139.600038,7.87109375 Z M129.738914,12.4511719 L126.451872,12.4511719 L126.451872,7.87109375 L129.738914,7.87109375 L129.738914,12.4511719 Z M128.160648,11.7024379 L128.300833,11.6992188 L129.259554,11.6992188 L129.259554,9.921875 L129.054114,9.921875 C128.825847,9.96744792 128.711713,9.80794271 128.711713,9.44335938 L128.711713,9.44335938 L128.711713,8.62304688 L126.999713,8.62304688 L126.999713,10.4003906 C126.954059,11.311849 127.387766,11.7447917 128.300833,11.6992188 L128.160648,11.7024379 Z M128.092168,18.3332973 L128.232353,18.3300781 L129.122594,18.3300781 L129.122594,16.5527344 L128.917154,16.5527344 C128.688887,16.5527344 128.59758,16.4160156 128.643233,16.1425781 L128.643233,16.1425781 L128.643233,15.1855469 L126.931233,15.1855469 L126.931233,17.03125 C126.885579,17.9427083 127.319286,18.375651 128.232353,18.3300781 L128.092168,18.3332973 Z" id="灰鲸智航" fill="#FFFFFF" fill-rule="nonzero"></path>
                </g>
            </g>
        </g>
    </g>
</svg>