<?xml version="1.0" encoding="UTF-8"?>
<svg width="24px" height="24px" viewBox="0 0 24 24" version="1.1" xmlns="http://www.w3.org/2000/svg" xmlns:xlink="http://www.w3.org/1999/xlink">
    <title>Icon-problem</title>
    <g id="灰鲸中台暗色系" stroke="none" stroke-width="1" fill="none" fill-rule="evenodd">
        <g id="nav_bar" transform="translate(-1154.000000, -13.000000)" fill="#FFFFFF" fill-rule="nonzero">
            <g id="Icon-problem" transform="translate(1154.000000, 13.000000)">
                <g transform="translate(4.000000, 4.000000)" id="形状">
                    <path d="M8,-1.81318509e-15 C3.58175439,-1.81318509e-15 -4.53296274e-16,3.58175439 -4.53296274e-16,8 C-4.53296274e-16,12.4182456 3.58175439,16 8,16 C12.4182456,16 16,12.4182456 16,8 C16,3.58175439 12.4182456,-1.81318509e-15 8,-1.81318509e-15 Z M8,1.40350877 C11.6435088,1.40350877 14.5964912,4.35649123 14.5964912,8 C14.5964912,11.6435088 11.6435088,14.5964912 8,14.5964912 C4.35649123,14.5964912 1.40350877,11.6435088 1.40350877,8 C1.40350877,4.35649123 4.35649123,1.40350877 8,1.40350877 Z M8.57431579,9.84644737 L8.57431579,9.68925439 C8.57431579,9.41865789 8.63045614,9.18230702 8.74273684,8.95718421 C8.84435088,8.75451754 8.99087719,8.56307895 9.19354386,8.39409649 C9.73361404,7.92139474 10.0603509,7.61711404 10.1619649,7.50483333 C10.4314386,7.14441228 10.5785263,6.6829386 10.5785263,6.11985088 C10.5785263,5.43269298 10.3528421,4.89262281 9.90259649,4.49851754 C9.45235088,4.09318421 8.85557895,3.90174561 8.12407018,3.90174561 C7.29094737,3.90174561 6.63747368,4.13809649 6.15354386,4.61079825 C5.65838596,5.0840614 5.42147368,5.73697368 5.42147368,6.57009649 L6.70540351,6.57009649 C6.70540351,6.09739474 6.79522807,5.72574561 6.98666667,5.4669386 C7.2005614,5.15142982 7.54975439,5.00490351 8.04491228,5.00490351 C8.42778947,5.00490351 8.73207018,5.10595614 8.94596491,5.32041228 C9.14807018,5.53430702 9.26091228,5.82679825 9.26091228,6.19844737 C9.26091228,6.48027193 9.15985965,6.75030702 8.95719298,6.99788596 L8.82189474,7.15507895 C8.08982456,7.80855263 7.65080702,8.28125439 7.50484211,8.58553509 C7.34708772,8.88925439 7.27915789,9.26090351 7.27915789,9.68869298 L7.27915789,9.84644737 L8.57431579,9.84644737 L8.57431579,9.84644737 Z M7.92140351,12.0982456 C8.16842105,12.0982456 8.37164912,12.0196491 8.54063158,11.8618947 C8.70905263,11.7047018 8.79887719,11.4902456 8.79887719,11.2426667 C8.79887719,10.9950877 8.70905263,10.7924211 8.55185965,10.6346667 C8.38287719,10.4774737 8.16898246,10.3983158 7.92140351,10.3983158 C7.67326316,10.3983158 7.47059649,10.4769123 7.30217544,10.6341053 C7.13319298,10.7924211 7.05403509,10.9950877 7.05403509,11.2426667 C7.05403509,11.4902456 7.13263158,11.6929123 7.30217544,11.8506667 C7.47059649,12.0078596 7.67326316,12.0982456 7.92140351,12.0982456 L7.92140351,12.0982456 Z"></path>
                </g>
            </g>
        </g>
    </g>
</svg>