<?xml version="1.0" encoding="UTF-8"?>
<svg width="22px" height="22px" viewBox="0 0 22 22" version="1.1" xmlns="http://www.w3.org/2000/svg" xmlns:xlink="http://www.w3.org/1999/xlink">
    <title>Icon-rejected</title>
    <g id="页面-1" stroke="none" stroke-width="1" fill="none" fill-rule="evenodd">
        <g id="02_4产品中心_产品开通记录_详情_已驳回" transform="translate(-284.000000, -142.000000)" fill="#F5222D" fill-rule="nonzero">
            <g id="Icon-rejected" transform="translate(284.000000, 142.000000)">
                <path d="M11,0 C4.90644938,0 0,4.96788127 0,11.0394104 C0,17.1109619 4.90644938,22 11,22 C17.0935506,22 22,17.1109619 22,11.0394104 C22,4.96785889 17.0935506,0 11,0 Z" id="路径" fill-opacity="0.1"></path>
                <path d="M10.9669283,16.5 C10.3033327,16.5 9.70588235,16.0027427 9.70588235,15.3193755 C9.70588235,14.6978044 10.2368311,14.1383911 10.9669283,14.1383911 C11.6305238,14.1383911 12.2276161,14.6356483 12.2276161,15.3193755 C12.2276161,16.0027427 11.6305238,16.5 10.9669283,16.5 Z M11.5640205,11.9011049 C11.5640205,12.522676 11.2987269,13.0820893 10.9669283,13.0820893 C10.6351313,13.0820893 10.3694762,12.584832 10.3694762,11.9011049 L9.77238391,6.68098444 C9.77238391,6.05941331 10.3033327,5.5 11.0330717,5.5 C11.6966673,5.5 12.2941176,5.99725726 12.2941176,6.68098444 L11.5643786,11.9011049 L11.5640205,11.9011049 Z" id="形状"></path>
            </g>
        </g>
    </g>
</svg>