<?xml version="1.0" encoding="UTF-8"?>
<svg width="20px" height="20px" viewBox="0 0 20 20" version="1.1" xmlns="http://www.w3.org/2000/svg" xmlns:xlink="http://www.w3.org/1999/xlink">
    <title>Application management</title>
    <g id="页面-1" stroke="none" stroke-width="1" fill="none" fill-rule="evenodd">
        <g id="01_1_2工作台首页_搜索/头像下拉框" transform="translate(-1201.000000, -159.000000)" fill-rule="nonzero">
            <g id="Icon-Application-management" transform="translate(1201.000000, 159.000000)">
                <g id="编组" transform="translate(3.000000, 3.000000)">
                    <path d="M14.1666667,0 L0.83333334,0 C0.373096045,0 0,0.373096045 0,0.83333334 L0,10.8333333 C0,11.2935706 0.373096052,11.6666667 0.83333334,11.6666667 L6.875,11.6666667 L6.875,13.75 L2.21666666,13.75 C1.91478228,13.7544731 1.67113976,13.9981156 1.66666666,14.3 L1.66666666,14.45 C1.67113976,14.7518844 1.91478228,14.9955269 2.21666666,15 L12.7833333,15 C13.0852177,14.9955269 13.3288602,14.7518844 13.3333333,14.45 L13.3333333,14.3 C13.3288602,13.9981156 13.0852177,13.7544731 12.7833333,13.75 L8.11666666,13.75 L8.11666666,11.6666667 L14.1666667,11.6666667 C14.6269039,11.6666667 15,11.2935706 15,10.8333333 L15,0.83333334 C15,0.373096045 14.626904,0 14.1666667,0 L14.1666667,0 Z M13.75,10.4166667 L1.25,10.4166667 L1.25,1.25 L13.75,1.25 L13.75,10.4166667 Z" id="形状" fill="#121212"></path>
                    <path d="M3.33333334,8.54166666 C3.16371557,8.53595678 3.00394867,8.46059504 2.89166666,8.33333334 C2.64795551,8.08931872 2.64795551,7.69401462 2.89166666,7.45 L5.39166666,4.95 C5.6050184,4.74180056 5.93467981,4.71056948 6.18333334,4.875 L8.25,6.25833334 L11.225,3.33333334 C11.4667511,3.17659197 11.7843255,3.20542075 11.9939001,3.40313257 C12.2034746,3.6008444 12.2507383,3.91620255 12.1083333,4.16666666 L8.775,7.5 C8.56164826,7.70819943 8.23198686,7.73943051 7.98333334,7.575 L5.91666666,6.21666666 L3.775,8.33333334 C3.66271799,8.46059503 3.5029511,8.53595677 3.33333334,8.54166666 L3.33333334,8.54166666 Z" id="路径" fill="#3C7DFF"></path>
                </g>
            </g>
        </g>
    </g>
</svg>