<?xml version="1.0" encoding="UTF-8"?>
<svg width="22px" height="22px" viewBox="0 0 22 22" version="1.1" xmlns="http://www.w3.org/2000/svg" xmlns:xlink="http://www.w3.org/1999/xlink">
    <title>已通过</title>
    <g id="页面-1" stroke="none" stroke-width="1" fill="none" fill-rule="evenodd">
        <g id="02_4产品中心_产品开通记录_详情_已通过" transform="translate(-284.000000, -142.000000)" fill="#52C41A" fill-rule="nonzero">
            <g id="已通过" transform="translate(284.000000, 142.000000)">
                <path d="M11,0 C17.0752953,0 22,4.92470475 22,11 C22,17.0752953 17.0752953,22 11,22 C4.92470475,22 0,17.0752953 0,11 C0,4.92470475 4.92470475,0 11,0 Z M9.06730237,14.1899889 L6.73200505,11.8546916 L6.7320051,11.8546916 C6.30995863,11.4177153 5.61358441,11.405611 5.17660545,11.8276567 C4.73962908,12.2497031 4.72752479,12.9460774 5.14957048,13.3830563 C5.15842484,13.3922239 5.16743785,13.4012369 5.17660545,13.4100913 L8.28850302,16.5219889 L8.28850312,16.521989 C8.71805193,16.9514089 9.41435139,16.9514089 9.84390277,16.5219888 L17.6208881,8.74389483 L17.6208881,8.74389484 C18.0640391,8.32833493 18.0864069,7.63221336 17.6708464,7.18906238 C17.2552865,6.7459114 16.559165,6.7235436 16.116014,7.13910403 C16.0990201,7.1550399 16.0825365,7.17151155 16.0665888,7.18849416 L9.06618566,14.1877887 L9.06730237,14.1899889 Z" id="形状"></path>
            </g>
        </g>
    </g>
</svg>