<?xml version="1.0" encoding="UTF-8"?>
<svg width="24px" height="24px" viewBox="0 0 24 24" version="1.1" xmlns="http://www.w3.org/2000/svg" xmlns:xlink="http://www.w3.org/1999/xlink">
    <title>Icon-message</title>
    <g id="灰鲸中台暗色系" stroke="none" stroke-width="1" fill="none" fill-rule="evenodd">
        <g id="nav_bar" transform="translate(-1198.000000, -13.000000)" fill="#FFFFFF" fill-rule="nonzero">
            <g id="Icon-message" transform="translate(1198.000000, 13.000000)">
                <g transform="translate(3.997664, 4.000000)" id="形状">
                    <path d="M9.82008368,14.1817683 C9.82008368,15.186292 9.00637566,16 8.00185201,16 C6.99732837,16 6.18362035,15.186292 6.18362035,14.1817683 L0.728925352,14.1817683 C0.103839677,14.1817683 -0.22953935,13.4470185 0.180604584,12.9754626 L2.00760938,10.8896504 C2.28834961,10.5694311 2.54715702,9.88074023 2.54715702,9.45524332 L2.54715702,5.454695 C2.54715702,2.44331734 4.98828107,-9.06716823e-16 8.00185201,-9.06716823e-16 C11.0132297,-9.06716823e-16 13.456547,2.44112406 13.456547,5.454695 L13.456547,9.45305003 C13.456547,9.88074023 13.7153544,10.5672378 13.9960946,10.8874572 L15.8230994,12.9732694 C16.2354367,13.4426319 15.8998644,14.1795751 15.2747787,14.1795751 L9.82008368,14.1817683 L9.82008368,14.1817683 Z M12.8994531,11.8459219 C12.3862249,11.2603153 12.0002071,10.2338588 12.0002071,9.45305003 L12.0002071,5.454695 C12.0002071,3.24605894 10.2104881,1.45414668 7.99965873,1.45414668 C5.7888294,1.45414668 3.99911041,3.24386566 3.99911041,5.454695 L3.99911041,9.45305003 C3.99911041,10.2316655 3.61309259,11.2603153 3.09986435,11.8459219 L2.33221528,12.7276217 L13.6714888,12.7276217 L12.8994531,11.8459219 Z"></path>
                </g>
            </g>
        </g>
    </g>
</svg>