<?xml version="1.0" encoding="UTF-8"?>
<svg width="20px" height="20px" viewBox="0 0 20 20" version="1.1" xmlns="http://www.w3.org/2000/svg" xmlns:xlink="http://www.w3.org/1999/xlink">
    <title>Icon-collection-a</title>
    <g id="灰鲸中台暗色系" stroke="none" stroke-width="1" fill="none" fill-rule="evenodd">
        <g id="nav_bar_message" transform="translate(-850.000000, -282.000000)" fill="#3C7DFF" fill-rule="nonzero">
            <g id="Icon-collection-a" transform="translate(850.000000, 282.000000)">
                <g id="收藏备份-2" transform="translate(3.000000, 3.000000)">
                    <path d="M7.4824625,3.22277106 L8.3055999,5.1829071 L8.69299098,6.10604896 L9.68747172,6.19869506 L11.838374,6.39906391 L10.3478782,7.72989065 L9.61932541,8.38081951 L9.82825887,9.33659201 C9.98084985,10.0356744 10.1149287,10.6743458 10.228849,11.2236657 L8.34346789,10.1319932 L7.50442299,9.64634468 L6.66842969,10.1373052 C5.91911997,10.5768283 5.33112499,10.9167772 4.83105733,11.1987713 L5.27275118,9.39087344 L5.51689272,8.39143504 L4.73705359,7.72254053 C4.1698172,7.23651424 3.66038047,6.79982846 3.20221332,6.41131299 L5.23632446,6.22848001 L6.22307492,6.139513 L6.61675668,5.2278026 L7.48245581,3.22277106 M7.51031026,0 C7.32069412,0 7.17074379,0.0563029955 7.0623073,0.171384926 C6.95184936,0.284042056 6.86638375,0.421970638 6.80818905,0.57867359 L5.08742369,4.56341922 L0.468640871,4.97926848 C0.36020572,5.00007043 0.260306685,5.04824158 0.170779079,5.12740933 C0.0810619819,5.20698974 0.0247189983,5.31553749 0.0060007767,5.45551212 C-0.014757147,5.59344103 0.0185995572,5.72937545 0.102025801,5.86321378 C0.187474672,5.99667286 0.289413912,6.11787413 0.408029662,6.22888143 L0.572825206,6.36887335 L0.954096335,6.6969946 C1.11033835,6.83043655 1.28327597,6.97899041 1.47899363,7.14182965 L2.06859894,7.63932266 C2.53734208,8.03598739 3.06429665,8.48735495 3.65388522,8.99299722 L3.14566545,11.0743169 C3.0748723,11.3416309 3.00814165,11.602807 2.94363868,11.861955 C2.87915346,12.1190564 2.82054781,12.3549436 2.77070174,12.5683791 C2.72066652,12.7814184 2.67690507,12.9630141 2.637446,13.1176873 L2.56238463,13.4082437 C2.54142098,13.4959901 2.5520142,13.5837366 2.59147328,13.6673916 C2.63113807,13.7510464 2.6936005,13.8240939 2.77904887,13.8824775 C2.8624408,13.9432673 2.95807228,13.9787854 3.06223853,13.9954958 C3.08544778,13.9987622 3.10841699,14 3.13140327,14 C3.21157268,14 3.29071363,13.9804186 3.36863811,13.9432674 C3.41869041,13.9220528 3.51654958,13.8722657 3.66039838,13.7947141 C3.80606424,13.7155634 3.97696148,13.6151633 4.17696612,13.4959916 C4.37493022,13.3768188 4.59791979,13.2494973 4.84164955,13.1095227 C5.08538098,12.9715938 5.33319014,12.8316015 5.58100097,12.6936734 C6.16042535,12.3675987 6.80191627,11.9958116 7.51032314,11.5799607 L11.4123561,13.8388047 L11.6292258,13.9200355 C11.7227996,13.9555192 11.7956497,13.9722638 11.845702,13.9722638 C11.9958419,13.9722638 12.1290976,13.9388088 12.2499598,13.8763513 C12.3685769,13.811487 12.4145496,13.6800571 12.3831983,13.4813033 C12.3728279,13.4417109 12.3541096,13.3454201 12.3250039,13.1907469 L12.2123005,12.6353175 C12.1665165,12.4157625 12.1187096,12.1733428 12.0706972,11.9060288 C12.0206449,11.6383202 11.9645074,11.3710062 11.9060903,11.1036922 C11.7748744,10.4682879 11.6269633,9.75980042 11.4562544,8.97868813 L14.5519982,6.21421691 C14.6811742,6.06361768 14.7873817,5.93832382 14.8728466,5.83385071 C14.9582784,5.72939405 15,5.60817616 15,5.4702464 C15,5.32210555 14.9603352,5.21314497 14.8811772,5.14212515 C14.7997908,5.07315204 14.6602265,5.01480354 14.4624699,4.96460413 L9.84166165,4.53403785 L8.16847484,0.549325792 C8.14771692,0.509733357 8.1206509,0.461579325 8.0852714,0.401184941 C8.04987482,0.342819144 8.00817032,0.282012093 7.95811802,0.223663924 C7.90806573,0.162856873 7.84579179,0.110628543 7.77277045,0.0669616436 C7.69767493,0.0228305345 7.61020326,0 7.51028749,0" id="形状"></path>
                </g>
            </g>
        </g>
    </g>
</svg>