<?xml version="1.0" encoding="UTF-8"?>
<svg width="20px" height="20px" viewBox="0 0 20 20" version="1.1" xmlns="http://www.w3.org/2000/svg" xmlns:xlink="http://www.w3.org/1999/xlink">
    <title>Icon-search</title>
    <g id="页面-1" stroke="none" stroke-width="1" fill="none" fill-rule="evenodd">
        <g id="01_1_2工作台首页_搜索/头像下拉框" transform="translate(-240.000000, -65.000000)" fill="#FFFFFF" fill-rule="nonzero">
            <g id="Icon-search" transform="translate(240.000000, 65.000000)">
                <g transform="translate(4.500000, 4.000000)" id="形状">
                    <path d="M5.5,10.9865616 C2.475,10.9865616 0,8.51458527 0,5.49328082 C0,2.47197637 2.475,0 5.5,0 C8.525,0 11,2.47197637 11,5.49328082 C11,8.51458527 8.525,10.9865616 5.5,10.9865616 Z M5.5,10.0710144 C8.02082886,10.0710144 10.0833289,8.01103409 10.0833289,5.49328485 C10.0833289,2.97553561 8.02082886,0.915555298 5.5,0.915555298 C2.97917114,0.915555298 0.916671143,2.97553561 0.916671143,5.49328485 C0.916671143,8.01103409 2.97917114,10.0710144 5.5,10.0710144 Z M8.89167114,10.8034514 C8.70833826,10.6203425 8.75417114,10.2999002 8.93750443,10.1625682 C9.12083732,10.0252362 9.44167155,10.0252362 9.57917155,10.2083455 L10.4500044,11.2612247 C10.6333373,11.4443337 10.5875044,11.7647759 10.4041711,11.902108 C10.2208383,12.03944 9.90000403,12.03944 9.76250403,11.8563307 L8.89167114,10.8034514 Z"></path>
                </g>
            </g>
        </g>
    </g>
</svg>