<?xml version="1.0" encoding="UTF-8"?>
<svg width="20px" height="20px" viewBox="0 0 20 20" version="1.1" xmlns="http://www.w3.org/2000/svg" xmlns:xlink="http://www.w3.org/1999/xlink">
    <title>Icon-Members of the configuration</title>
    <g id="灰鲸中台暗色系" stroke="none" stroke-width="1" fill="none" fill-rule="evenodd">
        <g id="菜单样式" transform="translate(-20.000000, -215.000000)" fill-rule="nonzero">
            <g id="Icon-Members-of-the-configuration" transform="translate(20.000000, 215.000000)">
                <g transform="translate(2.000000, 2.000000)">
                    <path d="M8,1.33335147 C9.47275933,1.33335147 10.6666667,2.52725733 10.6666667,4.00001484 C10.6666667,5.47277235 9.47275933,6.66667821 8,6.66667821 C6.52724067,6.66667821 5.33333333,5.47277235 5.33333333,4.00001484 C5.33333333,2.52725733 6.52724067,1.33335147 8,1.33335147 M8,9.85197434e-06 C5.790861,9.85197434e-06 4,1.79087857 4,4.00000985 C4,6.20915111 5.790861,8.00000985 8,8.00000985 C10.209139,8.00000985 12,6.20915111 12,4.00000985 C12.002367,2.93842633 11.5816998,1.9196361 10.8310405,1.1689778 C10.0803813,0.418319501 9.06158982,-0.00234719923 8,9.85197434e-06 Z" id="形状" fill="#FFFFFF"></path>
                    <path d="M7.33333333,12.6666708 L7.33333333,10.4444513 C7.33333333,10.0000074 7.55555556,9.77778547 8,9.77778547 L8,9.77778547 C8.44444444,9.77778547 8.66666667,10.0000074 8.66666667,10.4444513 L8.66666667,12.6666708 C8.66666667,13.1111147 8.44444444,13.3333366 8,13.3333366 L8,13.3333366 C7.55555556,13.3333366 7.33333333,13.1111147 7.33333333,12.6666708 Z" id="路径" fill="#3C7DFF"></path>
                    <path d="M8,8.44445378 C11.5082437,8.44600434 14.4150063,11.1662333 14.6488889,14.6666683 L1.31555556,14.6666683 C1.54943815,11.1662333 4.45620071,8.44600435 7.96444444,8.44445378 M8,7.1111221 C3.581722,7.1111221 0,10.6928397 0,15.1111221 C0,15.6020314 0.397969114,16 0.888888896,16 L15.1111111,16 C15.6020309,16 16,15.6020314 16,15.1111221 C16,10.6928397 12.418278,7.1111221 8,7.1111221 Z" id="形状" fill="#FFFFFF"></path>
                </g>
            </g>
        </g>
    </g>
</svg>