<?xml version="1.0" encoding="UTF-8"?>
<svg width="20px" height="20px" viewBox="0 0 20 20" version="1.1" xmlns="http://www.w3.org/2000/svg" xmlns:xlink="http://www.w3.org/1999/xlink">
    <title>Icon-Application management</title>
    <g id="灰鲸中台暗色系" stroke="none" stroke-width="1" fill="none" fill-rule="evenodd">
        <g id="菜单样式" transform="translate(-20.000000, -515.000000)" fill-rule="nonzero">
            <g id="Icon-Application-management" transform="translate(20.000000, 515.000000)">
                <g transform="translate(3.000000, 2.000000)">
                    <path d="M7.51670379,1.32069811 L13.7806236,4.68553401 L13.7806236,11.2806124 L7.51670379,14.6454483 L1.25278396,11.2806124 L1.25278396,4.7023582 L7.51670379,1.33752228 M7.51670379,0.016824173 C7.38212131,0.0163803767 7.24973361,0.0511652174 7.1325167,0.117769251 L0.451002227,3.72655577 C0.183793912,3.86570301 0.0115205714,4.13882849 0,4.44158341 L0,11.5582114 C0.0022072711,11.8634591 0.168419085,12.1435485 0.434298448,12.2900632 L7.11581292,15.8988497 C7.35443667,16.0337168 7.64556333,16.0337168 7.88418708,15.8988497 L14.5657016,12.2900632 C14.8315809,12.1435485 14.9977927,11.8634591 15,11.5582114 L15,4.44158341 C14.9977927,4.13633574 14.8315809,3.85624628 14.5657016,3.7097316 L7.88418708,0.100945078 C7.77190981,0.037097367 7.645618,0.00240589481 7.51670379,0 L7.51670379,0.016824173 Z" id="形状" fill="#FFFFFF"></path>
                    <path d="M11.2750557,6.31747945 C11.1186647,6.01103741 10.7492978,5.8845475 10.4398664,6.03146839 L7.80902004,7.36057857 C7.63091959,7.45337281 7.41919177,7.45337281 7.24109132,7.36057857 L4.60189309,6.03146839 C4.29246171,5.88454751 3.92309483,6.01103742 3.76670379,6.31747945 C3.61603988,6.62885275 3.7427927,7.00434217 4.05066815,7.15868841 L6.90701559,8.59715577 L6.90701559,11.5666235 C6.90701559,11.9150636 7.18746083,12.1975302 7.53340757,12.1975302 C7.87935431,12.1975302 8.15979955,11.9150636 8.15979955,11.5666235 L8.15979955,8.60556787 L10.9910913,7.15868841 C11.2989668,7.00434218 11.4257196,6.62885275 11.2750557,6.31747945 Z" id="路径" fill="#3C7DFF"></path>
                </g>
            </g>
        </g>
    </g>
</svg>