<?xml version="1.0" encoding="UTF-8"?>
<svg width="20px" height="20px" viewBox="0 0 20 20" version="1.1" xmlns="http://www.w3.org/2000/svg" xmlns:xlink="http://www.w3.org/1999/xlink">
    <title>Icon-park management</title>
    <g id="灰鲸中台暗色系" stroke="none" stroke-width="1" fill="none" fill-rule="evenodd">
        <g id="nav_bar_message" transform="translate(-400.000000, -251.000000)" fill="#FFFFFF" fill-rule="nonzero">
            <g id="Icon-park-management" transform="translate(400.000000, 251.000000)">
                <g transform="translate(2.000000, 1.999298)" id="形状">
                    <path d="M8.89044267,8.54343901 L8.89044267,13.6712072 L14.2226107,11.0051232 L14.2226107,8.00133526 C14.2226107,7.51052275 14.6204928,7.1126406 15.1113053,7.1126406 C15.6021178,7.1126406 16,7.51052275 16,8.00133526 L16,11.5561139 C15.9989857,11.8907592 15.8100679,12.1964627 15.5112179,12.3470522 L8.45853706,15.8742813 C8.17759611,16.0437779 7.82589989,16.0437779 7.54495894,15.8742813 L0.492278068,12.3470522 C0.193428136,12.1964627 0.00451027244,11.8907592 0.00349600165,11.5561139 L0.00349600165,8.00133526 C0.00349600165,7.51052275 0.401378157,7.1126406 0.892190668,7.1126406 C1.38300318,7.1126406 1.78088533,7.51052275 1.78088533,8.00133526 L1.78088533,11.0051232 L7.11305333,13.6712072 L7.11305333,8.54877118 L0.492278068,5.23838355 C0.190642199,5.08804886 -2.02065773e-15,4.78002514 -2.02065773e-15,4.44300182 C-2.02065773e-15,4.1059785 0.190642199,3.79795478 0.492278068,3.64762009 L7.6018354,0.0928414262 C7.85095101,-0.0309471421 8.14365804,-0.0309471421 8.39277365,0.0928414262 L15.502331,3.64762009 C15.8039669,3.79795478 15.9946091,4.1059785 15.9946091,4.44300182 C15.9946091,4.78002514 15.8039669,5.08804886 15.502331,5.23838355 L8.89044267,8.54432771 L8.89044267,8.54343901 Z M2.88286672,4.4465566 L8.001748,7.00599724 L13.1206293,4.4465566 L8.001748,1.88711596 L2.88286672,4.4465566 L2.88286672,4.4465566 Z"></path>
                </g>
            </g>
        </g>
    </g>
</svg>