<?xml version="1.0" encoding="UTF-8"?>
<svg width="20px" height="20px" viewBox="0 0 20 20" version="1.1" xmlns="http://www.w3.org/2000/svg" xmlns:xlink="http://www.w3.org/1999/xlink">
    <title>Icon- basic information</title>
    <g id="灰鲸中台暗色系" stroke="none" stroke-width="1" fill="none" fill-rule="evenodd">
        <g id="nav_bar" transform="translate(-1084.000000, -159.000000)" fill-rule="nonzero">
            <g id="Icon--basic-information" transform="translate(1084.000000, 159.000000)">
                <g id="编组" transform="translate(2.500000, 2.500000)">
                    <path d="M6.04166666,3.80789496 C5.69514501,3.81245485 5.41666666,4.21418031 5.41666666,4.56073196 C5.42122599,4.90265118 5.69971705,5.27705526 6.04166666,5.27702486 L11.4583333,5.27702486 C11.800283,5.27705526 12.078774,4.90265118 12.0833333,4.56073196 C12.0833333,4.21418031 11.804855,3.81245485 11.4583333,3.80789496 L6.04166666,3.80789496 Z" id="路径" fill="#121212"></path>
                    <path d="M6.04166666,6.57415128 C5.69514501,6.57871117 5.41666666,6.98043662 5.41666666,7.32698827 C5.42122599,7.66890749 5.69971705,8.04331157 6.04166666,8.04328118 L11.4583333,8.04328118 C11.800283,8.04331157 12.078774,7.66890749 12.0833333,7.32698827 C12.0833333,6.98043662 11.804855,6.57871117 11.4583333,6.57415128 L6.04166666,6.57415128 Z" id="路径" fill="#3C7DFF"></path>
                    <path d="M14.5833333,10.125 L14.5833333,0.83333334 C14.5833333,0.373096045 14.2102373,0 13.75,0 L3.75,0 C3.2897627,0 2.91666666,0.373096045 2.91666666,0.83333334 L1.25,0.83333334 C0.789762713,0.83333334 0.416666671,1.20642937 0.41666666,1.66666666 L0.41666666,10.125 C0.162918922,10.2714507 0.00471699882,10.540394 0,10.8333333 L0,14.1666667 C0,14.626904 0.373096045,15 0.83333334,15 L14.1666667,15 C14.626904,15 15,14.626904 15,14.1666667 L15,10.8333333 C14.995283,10.540394 14.8370811,10.2714507 14.5833333,10.125 Z M13.3333333,1.25 L13.3333333,10 L10.375,10 C10.076096,9.99881333 9.79945081,10.1578048 9.65,10.4166667 C9.19965587,11.1756329 8.3825189,11.6409316 7.5,11.6409316 C6.6174811,11.6409316 5.80034413,11.1756329 5.35,10.4166667 C5.20054919,10.1578048 4.92390396,9.99881333 4.625,10 L4.16666666,10 L4.16666666,1.25 L13.3333333,1.25 Z M2.91666666,2.08333334 L2.91666666,10 L1.66666666,10 L1.66666666,2.08333334 L2.91666666,2.08333334 Z M13.75,13.75 L1.25,13.75 L1.25,11.25 L4.39166666,11.25 C5.08377442,12.2903521 6.25046184,12.9154741 7.5,12.9154741 C8.74953816,12.9154741 9.91622558,12.2903521 10.6083333,11.25 L13.75,11.25 L13.75,13.75 Z" id="形状" fill="#121212"></path>
                </g>
            </g>
        </g>
    </g>
</svg>