<?xml version="1.0" encoding="UTF-8"?>
<svg width="20px" height="20px" viewBox="0 0 20 20" version="1.1" xmlns="http://www.w3.org/2000/svg" xmlns:xlink="http://www.w3.org/1999/xlink">
    <title>鲸眼轨迹监控</title>
    <g id="页面-1" stroke="none" stroke-width="1" fill="none" fill-rule="evenodd">
        <g id="02_1鲸眼_产品用量统计" transform="translate(-16.000000, -66.000000)">
            <g id="鲸眼轨迹监控" transform="translate(16.000000, 66.000000)">
                <rect id="矩形" fill-opacity="0" fill="#D8D8D8" x="0" y="0" width="20" height="20"></rect>
                <g id="path-3-link" transform="translate(2.000000, 3.000000)" fill="#99A1A9" fill-rule="nonzero">
                    <path d="M8.50019027,0 C11.0554273,0 13.287794,1.40075735 14.4864704,3.48486631 C15.8823081,3.86210914 16.8075033,4.53902953 16.9739803,5.49329372 C17.1404631,6.44832054 16.49885,7.40486207 15.312893,8.24296464 C14.7330083,11.5159331 11.9035428,14 8.50019027,14 C5.94870619,14 3.72007485,12.6037832 2.5199077,10.5261126 C1.12032942,10.1488697 0.192894854,9.47157154 0.0260320434,8.51578737 C-0.140450747,7.56076054 0.500788751,6.60421902 1.68599699,5.76648892 C2.2621393,2.48897993 5.09383898,0 8.50019027,0 Z M12.6878358,3.0179485 C11.2913594,1.54073832 9.15877021,0.861366579 7.0645583,1.4309058 C4.00960215,2.26172788 2.19316205,5.43559935 3.00742571,8.51994611 C3.82168942,11.6042929 6.95831187,13.4311357 10.0132679,12.6003136 C12.8504725,11.828711 14.6194269,9.03617142 14.2049259,6.17129646 C12.9565569,4.58538813 10.8513476,3.81169213 8.78716303,4.37306518 C6.01072146,5.12814277 4.35988268,8.01265844 5.09991149,10.8158112 C5.19677785,11.1827311 5.32980703,11.5300696 5.49412195,11.8549914 C4.92139564,11.2041862 4.48652088,10.411756 4.24909513,9.51241163 C3.43483143,6.42806482 5.25127157,3.2541934 8.30622771,2.42337132 C9.84917312,2.00375381 11.4129507,2.26207653 12.6878358,3.0179485 Z M9.64173192,5.83435018 C10.3340134,5.51956656 11.0238177,5.39935654 11.711145,5.47372006 C12.742136,5.58526543 13.027406,6.79637147 13.0099734,7.43149517 C12.9983517,7.85491092 12.8883302,8.34328256 12.6799091,8.89661009 C12.8653757,8.19692539 12.8432005,7.68209093 12.6133835,7.35210669 C12.2686581,6.85713037 11.5638253,6.30699613 10.7498058,6.72129543 C9.93578637,7.13559467 9.54167966,7.98906439 9.2492407,8.64589311 C8.9568018,9.30272184 8.84483502,9.96994913 8.43831583,10.7316052 C8.03179671,11.4932613 7.43607025,11.8950873 6.84173131,11.6449949 C6.44550529,11.4782665 6.25349241,11.2021553 6.26569254,10.816661 C6.24049655,10.64441 6.22662666,10.5116172 6.22408302,10.4182829 C6.22153931,10.3249486 6.22858209,10.2072373 6.24521135,10.065149 C6.37361737,9.26398378 6.7564728,8.47410108 7.39377763,7.6955009 C8.03108253,6.91690073 8.7804006,6.29651713 9.64173192,5.83435018 Z M9.49211377,9.54262682 C9.60912592,9.50297778 9.68758969,9.49883071 9.73543259,9.52950649 C9.76618874,9.5492266 9.84585165,9.80086278 9.97442132,10.284415 L9.97442132,10.284415 L9.9889081,10.3390974 L9.99162804,10.3540693 C10.0258305,10.5227391 10.1748495,10.6569892 10.4386848,10.7568197 C10.7102801,10.8595863 11.263438,10.6496466 12.0981587,10.1270003 C11.6791729,10.737529 11.1980313,11.0923398 10.6547339,11.1914327 C9.83978779,11.3400722 9.41387124,10.7362394 9.31423624,10.2836034 C9.24781294,9.981846 9.25772473,9.76596747 9.34397154,9.63596771 C9.40828774,9.58541211 9.4576685,9.55429846 9.49211377,9.54262682 Z M10.5776335,8.15099956 C10.9757701,7.45533428 11.5993046,7.0665681 11.9703368,7.28266596 C12.341369,7.49876388 12.3193965,8.23789394 11.92126,8.93355922 C11.5231234,9.6292245 10.8995889,10.0179907 10.5285567,9.80189282 C10.1575245,9.5857949 10.179497,8.84666484 10.5776335,8.15099956 Z" id="path-3"></path>
                </g>
            </g>
        </g>
    </g>
</svg>