<?xml version="1.0" encoding="UTF-8"?>
<svg width="20px" height="20px" viewBox="0 0 20 20" version="1.1" xmlns="http://www.w3.org/2000/svg" xmlns:xlink="http://www.w3.org/1999/xlink">
    <title>Icon-Enterprise certification</title>
    <g id="灰鲸中台暗色系" stroke="none" stroke-width="1" fill="none" fill-rule="evenodd">
        <g id="菜单样式" transform="translate(-20.000000, -15.000000)" fill-rule="nonzero">
            <g id="Icon-Enterprise-certification" transform="translate(20.000000, 15.000000)">
                <g id="编组" transform="translate(2.000000, 2.000000)">
                    <path d="M3.31372158,4.44441447 L10.0840746,4.44441447 C10.5068495,4.44441447 10.7182369,4.65478343 10.7182369,5.07552134 L10.7182369,5.14663197 C10.7182369,5.56736987 10.5068495,5.77773882 10.0840746,5.77773882 L3.31372158,5.77773882 C2.89094668,5.77773882 2.67955923,5.56736987 2.67955923,5.14663197 L2.67955923,5.07552134 C2.67955923,4.65478344 2.89094668,4.44441447 3.31372158,4.44441447 Z" id="路径" fill="#3C7DFF"></path>
                    <path d="M7.42237908,7.99994606 L3.29585786,7.99994606 C3.1324053,7.99994606 2.97564733,8.06456449 2.86006892,8.17958603 C2.74449051,8.29460756 2.67955923,8.45061024 2.67955923,8.61327526 L2.67955923,8.71994121 C2.67955923,8.88260623 2.74449051,9.03860891 2.86006892,9.15363044 C2.97564733,9.26865198 3.1324053,9.33327041 3.29585786,9.33327041 L7.42237908,9.33327041 C7.58583163,9.33327041 7.7425896,9.26865198 7.85816801,9.15363044 C7.97374642,9.03860891 8.0386777,8.88260623 8.0386777,8.71994121 L8.0386777,8.61327526 C8.0386777,8.45061024 7.97374642,8.29460756 7.85816801,8.17958603 C7.7425896,8.06456449 7.58583163,7.99994606 7.42237908,7.99994606 Z" id="路径" fill="#FFFFFF"></path>
                    <path d="M1.33977962,14.6665678 L1.33977962,1.33332434 L12.0580165,1.33332434 L12.0580165,6.44440099 C12.0628271,6.81058702 12.3599474,7.1062758 12.7279064,7.11106316 C13.0958653,7.1062758 13.3929856,6.81058702 13.3977962,6.44440099 L13.3977962,0.888882903 C13.3977962,0.397966431 12.997903,0 12.5046097,0 L0.893186418,0 C0.399893181,0 0,0.397966431 0,0.888882903 L0,15.1110092 C0,15.6019257 0.399893181,15.9998921 0.893186418,15.9998921 L7.36878789,15.9998921 C7.73674681,15.9951048 8.03386716,15.699416 8.0386777,15.33323 C8.03386716,14.9670439 7.73674681,14.6713551 7.36878789,14.6665678 L1.33977962,14.6665678 Z" id="路径" fill="#FFFFFF"></path>
                    <path d="M14.0766178,12.8176914 C15.0172643,12.1395391 15.4117651,10.9354881 15.0535936,9.83587605 C14.695422,8.73626397 13.6661476,7.99151452 12.5046098,7.99151452 C11.343072,7.99151452 10.3137975,8.73626397 9.95562595,9.83587605 C9.59745443,10.9354881 9.99195525,12.1395391 10.9326017,12.8176914 C9.96418148,13.2896393 9.26174931,14.1716154 9.02118274,15.2176752 C8.9834419,15.4124413 9.03603217,15.6137563 9.16431122,15.7655693 C9.29259027,15.9173824 9.48285843,16.0034805 9.6821407,15.9998921 C9.99345415,15.9996941 10.2636024,15.7860899 10.3341668,15.48434 C10.5764595,14.4869236 11.473493,13.784309 12.5046097,13.784309 C13.5357265,13.784309 14.43276,14.4869236 14.6750527,15.48434 C14.7456171,15.7860899 15.0157654,15.9996941 15.3270788,15.9998921 C15.5263611,16.0034805 15.7166292,15.9173824 15.8449083,15.7655693 C15.9731873,15.6137563 16.0257776,15.4124413 15.9880368,15.2176752 C15.7474702,14.1716154 15.045038,13.2896393 14.0766178,12.8176914 L14.0766178,12.8176914 Z M12.5046097,9.33327041 C13.2445496,9.33327041 13.8443894,9.93022005 13.8443894,10.6665948 C13.8443894,11.4029695 13.2445496,11.9999191 12.5046097,11.9999191 C11.7646699,11.9999191 11.1648301,11.4029695 11.1648301,10.6665948 C11.1648301,9.93022005 11.7646699,9.33327041 12.5046097,9.33327041 Z" id="形状" fill="#FFFFFF"></path>
                </g>
            </g>
        </g>
    </g>
</svg>