<?xml version="1.0" encoding="UTF-8"?>
<svg width="22px" height="22px" viewBox="0 0 22 22" version="1.1" xmlns="http://www.w3.org/2000/svg" xmlns:xlink="http://www.w3.org/1999/xlink">
    <title>Icon- review</title>
    <g id="页面-1" stroke="none" stroke-width="1" fill="none" fill-rule="evenodd">
        <g id="02_4产品中心_产品开通记录_详情_待审核" transform="translate(-284.000000, -142.000000)" fill="#FF6900">
            <g id="Icon--review" transform="translate(284.000000, 142.000000)">
                <path d="M11,0 C17.0751778,0 22,4.92487111 22,11 C22,17.0751778 17.0751778,22 11,22 C4.92487111,22 0,17.0751778 0,11 C0,4.92487111 4.92487111,0 11,0 Z" id="路径" opacity="0.1"></path>
                <path d="M11.8064966,8.98888664 C12.0036725,8.98888664 12.1635181,9.14806063 12.1635181,9.34440791 L12.1633468,14.3645673 L13.2226534,14.3650888 C13.4434831,14.3650888 13.6225175,14.5433708 13.6225175,14.7632726 L13.6225175,16.0374134 C13.6225175,16.2573152 13.4434831,16.4355972 13.2226534,16.4355972 L8.81162928,16.4355972 C8.59079053,16.4355972 8.41176471,16.2573152 8.41176471,16.0374134 L8.41176471,14.7632726 C8.41176471,14.5433708 8.59079053,14.3650888 8.81162928,14.3650888 L9.87912312,14.3645673 L9.87912312,11.0852391 L9.67309315,11.0857132 C9.45225392,11.0857132 9.27322905,10.9074311 9.27322905,10.6875293 L9.27322905,9.39252179 C9.27322905,9.17261055 9.45225392,8.99433323 9.67309315,8.99433323 L10.1720759,8.99461765 C10.1928927,8.99085386 10.2143425,8.98888664 10.2362494,8.98888664 L11.8064966,8.98888664 Z M11.5972392,5.5 C11.8180784,5.5 11.9971033,5.67827306 11.9971033,5.8981843 L11.9971033,7.3771523 C11.9971033,7.59706354 11.8180784,7.77533612 11.5972392,7.77533612 L10.1120297,7.77533612 C9.89119045,7.77533612 9.71216558,7.59706354 9.71216558,7.3771523 L9.71216558,5.8981843 C9.71216558,5.67827306 9.89119045,5.5 10.1120297,5.5 L11.5972392,5.5 Z" id="形状结合"></path>
            </g>
        </g>
    </g>
</svg>