<?xml version="1.0" encoding="UTF-8"?>
<svg width="20px" height="20px" viewBox="0 0 20 20" version="1.1" xmlns="http://www.w3.org/2000/svg" xmlns:xlink="http://www.w3.org/1999/xlink">
    <title>Icon-Rights management</title>
    <g id="灰鲸中台暗色系" stroke="none" stroke-width="1" fill="none" fill-rule="evenodd">
        <g id="菜单样式" transform="translate(-20.000000, -365.000000)" fill-rule="nonzero">
            <g id="Icon-Rights-management" transform="translate(20.000000, 365.000000)">
                <g transform="translate(2.000000, 2.000000)" id="形状">
                    <path d="M6.26590105,2.38209267 L6.26590105,8.42061426 C6.26590105,9.15661059 6.86406754,9.75325351 7.6019433,9.75325352 L13.6558848,9.75325352 C13.0576541,12.6603798 10.4937514,14.7480306 7.51844067,14.7506507 L7.34308512,14.7506507 C4.03748731,14.6186924 1.38803783,11.9759913 1.25574257,8.67881312 C1.15625503,5.63988606 3.27621536,2.97553969 6.26590105,2.38209267 M6.68341425,1.05778241 L6.57486081,1.05778241 C2.7351669,1.54083874 -0.108920022,4.85349252 0.00320294444,8.71212909 C0.156914718,12.6686624 3.33487546,15.8421555 7.30133379,16 L7.51844067,16 C11.3073552,16 14.5037172,13.1866377 14.9752265,9.43675168 C15.0040299,9.19911733 14.9289422,8.96060897 14.7691144,8.78205776 C14.6092866,8.60350655 14.3801699,8.50217379 14.1402001,8.50390422 L7.6019433,8.50390422 C7.55582607,8.50390421 7.51844067,8.46661403 7.51844067,8.42061426 L7.51844067,1.89901093 C7.51844067,1.67811224 7.43046493,1.46626098 7.2738671,1.31006202 C7.11726926,1.15386306 6.90487703,1.06611139 6.68341425,1.06611139 L6.68341425,1.05778241 Z" fill="#FFFFFF"></path>
                    <path d="M9.78971251,1.33263926 C12.2533598,1.82700626 14.1789876,3.7477293 14.674617,6.20510151 L9.78971251,6.20510151 L9.78971251,1.33263926 M9.37219931,0.00832900182 C8.91102696,0.00832900182 8.53717289,0.381230815 8.53717289,0.84122852 L8.53717289,6.61322227 C8.53717289,7.07321998 8.91102695,7.44614361 9.37219931,7.44614361 L15.1589324,7.44614361 C15.3989021,7.44785223 15.6280188,7.34651947 15.7878466,7.16796825 C15.9476744,6.98941704 16.0227622,6.75090868 15.9939588,6.51327433 C15.5699244,3.1097099 12.8841128,0.427309152 9.47240248,0 L9.37219931,0.00832900182 Z" fill="#3C7DFF"></path>
                </g>
            </g>
        </g>
    </g>
</svg>