<?xml version="1.0" encoding="UTF-8"?>
<svg width="276px" height="68px" viewBox="0 0 276 68" version="1.1" xmlns="http://www.w3.org/2000/svg" xmlns:xlink="http://www.w3.org/1999/xlink">
    <title>编组 3备份 3@3x</title>
    <g id="中台UI" stroke="none" stroke-width="1" fill="none" fill-rule="evenodd">
        <g id="画板" transform="translate(-145.000000, -341.000000)" fill="#1664FF">
            <g id="编组-3备份-3" transform="translate(145.904967, 341.000000)">
                <g id="图形" transform="translate(-0.000000, 0.766024)">
                    <path d="M1.40099246,24.2808309 C1.40099246,24.2808309 11.6355878,17.7970305 20.8169553,14.7365747 C29.9997404,11.6761188 54.1474316,2.51459677 80.6950079,0.744096838 C107.242584,-1.0264031 113.543523,0.918453517 113.543523,0.918453517 C113.543523,0.918453517 114.140304,1.16935703 112.921225,2.44655514 C111.703564,3.72233572 104.393341,12.4415872 99.3993687,16.9039841 C94.406814,21.3649636 88.1384788,21.5775936 88.1384788,21.5775936 C88.1384788,21.5775936 84.8030213,22.3132938 69.8012593,19.2216522 C69.8012593,19.2216522 55.9661277,16.6374878 50.9976711,16.8912263 C46.0306321,17.1435474 31.9417619,15.9017876 4.05178099,24.3332797 C4.05178099,24.3332797 1.17843963,26.2100947 1.40099246,24.2808309" id="Fill-1"></path>
                    <path d="M73.2203512,26.6570431 C73.2203512,26.6570431 73.6838848,27.1758606 72.9212516,27.4210939 L58.1987437,23.9041922 C58.1987437,23.9041922 56.6720596,22.7035409 58.1718106,21.4504409 C58.1718106,21.4504409 59.1527441,20.9585566 59.8076448,21.4504409 L73.2203512,26.6570431 Z" id="Fill-3"></path>
                    <path d="M40.1207912,24.5624949 C40.1207912,24.5624949 38.545911,23.9883937 39.0874089,22.6261435 C39.0874089,22.6261435 39.8755578,20.8202052 41.7948988,22.2646724 C41.7948988,22.2646724 57.6925423,28.4181873 58.5586556,28.5840388 L71.1888833,32.8167953 C71.1888833,32.8167953 79.019341,34.9827872 80.1193473,35.1486387 C80.1193473,35.1486387 81.4064682,35.5625586 80.2412553,36.1579228 C80.2412553,36.1579228 74.4208608,35.2861394 62.0897327,31.7493922 C62.0897327,31.7493922 45.8731441,26.9340293 40.1207912,24.5624949" id="Fill-5"></path>
                    <path d="M21.7787521,24.7972386 C21.7787521,24.7972386 20.4335124,23.8928519 21.337899,22.5972258 C21.337899,22.5972258 22.1699915,21.5695137 23.3692252,22.4257042 C23.3692252,22.4257042 51.8602406,34.8560596 61.4541105,37.5153534 C61.4541105,37.5153534 75.432413,42.5192483 90.142163,45.6193951 C90.142163,45.6193951 92.3067374,46.3664355 89.9266979,46.5663078 C89.9266979,46.5663078 84.7555339,46.2884711 67.2362316,41.1669209 C49.7183467,36.0467882 40.1981886,32.0918684 21.7787521,24.7972386" id="Fill-7"></path>
                    <path d="M10.3671784,27.3720473 C10.3671784,27.3720473 9.08998024,26.7114764 9.48547222,25.5434284 C9.48547222,25.5434284 10.1914041,23.8693208 11.667057,24.8601771 C11.667057,24.8601771 46.1102975,40.7436452 62.570702,46.0466398 C62.570702,46.0466398 77.0210433,51.2645824 96.4667744,55.5398649 C96.4667744,55.5398649 99.1402435,56.3039157 96.2314637,56.4343288 C96.2314637,56.4343288 66.0776811,50.1206325 49.1622481,43.2073193 C32.2453977,36.2925886 24.8231898,34.4838152 10.3671784,27.3720473" id="Fill-9"></path>
                    <path d="M0.495613514,29.9336729 C0.495613514,29.9336729 -0.508000539,28.8124035 0.341102311,27.6925517 C1.19162269,26.5712823 3.39305296,28.2326321 3.39305296,28.2326321 C3.39305296,28.2326321 32.2781427,44.1628789 56.3365293,51.6814791 C56.3365293,51.6814791 85.6653073,61.1973847 95.5270911,62.4306393 L112.098063,65.442899 C112.098063,65.442899 113.441885,66.2296303 111.358111,66.4621059 C109.271501,66.6931639 71.4715396,59.7841033 49.0872606,51.3143378 C26.7015641,42.8431548 12.5262243,36.9887395 0.495613514,29.9336729" id="Fill-11"></path>
                </g>
                <g id="编组-2" transform="translate(138.578121, 0.000000)" fill-rule="nonzero">
                    <path d="M15.1441965,31.8328436 C17.8040837,31.8328436 20.2494639,31.4896324 22.480337,30.8032099 C24.5825059,30.1167874 26.4272664,29.1729564 28.0146185,27.9288156 L28.0146185,15.0583937 L14.8867881,15.0583937 L14.8867881,19.0482245 L23.3383651,19.0482245 L23.3383651,25.6979425 C22.3087314,26.3414636 21.1932948,26.8562805 19.9062526,27.1994917 C18.576309,27.542703 17.1605626,27.75721 15.6590134,27.75721 C11.8407882,27.75721 9.00929537,26.6846749 7.20743629,24.5396045 C5.49138003,22.5661398 4.67625331,19.734647 4.67625331,16.045126 C4.67625331,12.2698023 5.57718285,9.30960521 7.46484473,7.16453489 C9.2238024,5.10526738 11.5833798,4.11853503 14.5435768,4.11853503 C16.9460556,4.11853503 18.9195203,4.6333519 20.3781681,5.70588707 C21.8368159,6.73552082 22.7806469,8.27997146 23.2096609,10.339239 L27.9288156,10.339239 C27.3710974,6.90712645 25.9982523,4.37594346 23.8102806,2.6598872 C21.5365061,0.85802813 18.4476048,0 14.5435768,0 C10.0389291,0 6.43521098,1.54445063 3.77532377,4.71915472 C1.24414079,7.67935177 0,11.4546755 0,16.045126 C0,20.5926751 1.24414079,24.3250975 3.77532377,27.1994917 C6.47811238,30.288393 10.2534362,31.8328436 15.1441965,31.8328436 Z M53.2406455,31.2322239 L59.4613494,7.59354895 L59.6329551,7.59354895 L65.853659,31.2322239 L70.8302222,31.2322239 L79.6679119,0.600619691 L74.3910389,0.600619691 L68.4277434,24.4538017 L68.2561378,24.4538017 L61.9925324,0.600619691 L57.1017721,0.600619691 L50.8381667,24.4538017 L50.6665611,24.4538017 L44.7032656,0.600619691 L39.4263926,0.600619691 L48.2211809,31.2322239 L53.2406455,31.2322239 Z M96.1849534,31.2322239 L96.1849534,0.600619691 L91.5516015,0.600619691 L91.5516015,31.2322239 L96.1849534,31.2322239 Z M115.533488,31.2322239 L115.533488,8.19416864 L115.705093,8.19416864 L131.535712,31.2322239 L136.083261,31.2322239 L136.083261,0.600619691 L131.407008,0.600619691 L131.407008,23.3812666 L131.235403,23.3812666 L115.576389,0.600619691 L110.857234,0.600619691 L110.857234,31.2322239 L115.533488,31.2322239 Z" id="GWIN"></path>
                    <path d="M1.47205451,62.9898496 C3.9254787,60.6139019 5.78491597,57.9538736 7.05036634,54.9581135 C7.64435325,53.3052804 8.16086361,51.4716686 8.57407189,49.4831038 L23.1654894,49.4831038 L23.1654894,47.1071561 L9.01310569,47.1071561 C9.1680588,46.1257865 9.29718639,45.0927658 9.42631397,44.008094 L6.97288979,44.008094 C6.86958772,45.0927658 6.76628565,46.1257865 6.63715806,47.1071561 L0.929718639,47.1071561 L0.929718639,49.4831038 L6.24977529,49.4831038 C5.88821804,51.187588 5.42335873,52.7112935 4.90684837,54.0800459 C3.79635111,56.7917253 2.16934349,59.1160219 0,61.0787612 L1.47205451,62.9898496 Z M4.5194656,68 C9.63291812,66.605422 12.9644099,64.0486958 14.5397665,60.3039957 C16.3475527,64.0745213 19.1108831,66.605422 22.8814087,67.8966979 L24.1210336,65.804831 C19.8856487,64.6168572 16.9931907,61.7243992 15.3920086,57.1532825 C15.4694851,56.1719129 15.5211362,53.9250928 15.5211362,50.3869969 L13.067712,50.3869969 L13.0667555,51.499478 C13.0616541,54.3567935 13.0361475,56.3412135 12.9902354,57.4890143 C12.318772,61.8793523 9.09058224,64.6943337 3.25401524,65.9339586 L4.5194656,68 Z M18.95593,59.7874854 C20.2472059,57.9538736 21.2802266,55.7845301 22.1066432,53.3052804 L20.0147762,52.5046894 C19.2400107,54.9064625 18.258641,56.9725039 17.0190162,58.7286391 L18.95593,59.7874854 Z M9.03893121,60.0973916 C10.0977774,58.0830012 10.8208919,55.9911343 11.2082747,53.7959652 L9.14223328,53.2536294 C8.729025,55.4229729 8.0059105,57.4890143 6.97288979,59.4001026 L9.03893121,60.0973916 Z M47.349652,62.6024668 L47.349652,50.6969031 L45.206134,50.6969031 C45.7742954,49.79301 46.3682823,48.7083382 46.9622693,47.4170624 L46.9622693,45.7900547 L42.4169781,45.7900547 C42.5719312,45.402672 42.7527099,45.0152892 42.907663,44.6020809 L40.712494,43.8531409 C39.9377284,46.3840417 38.7755801,48.4759086 37.174398,50.1287417 L37.6650829,52.4530383 C37.9491636,52.1947831 38.2332443,51.9107024 38.517325,51.6266218 L38.517325,62.6024668 L47.349652,62.6024668 Z M60.9080488,48.8116403 L60.9080488,46.5648203 L55.1231329,46.5648203 C54.8907032,45.5834506 54.6582735,44.705383 54.4258439,43.9306175 L52.1015473,44.2921747 C52.3598025,44.9894637 52.5922321,45.7384037 52.8246618,46.5648203 L47.6337327,46.5648203 L47.6337327,48.8116403 L60.9080488,48.8116403 Z M42.6235823,50.6969031 L39.369567,50.6969031 C40.1443326,49.79301 40.8416216,48.8116403 41.461434,47.7269686 L44.6637982,47.7269686 C43.9665092,48.8632914 43.2950457,49.844661 42.6235823,50.6969031 Z M53.3153466,67.7675703 C54.8132266,67.7675703 55.5879922,66.9669793 55.5879922,65.4174482 L55.5879922,58.3670819 L59.5651219,58.3670819 L59.5651219,50.6969031 L49.0283107,50.6969031 L49.0283107,58.3670819 L53.2378701,58.3670819 L53.2378701,64.8492868 C53.2378701,65.3657972 52.9796149,65.6498779 52.5147556,65.6498779 C51.8432921,65.6498779 51.1201776,65.5982269 50.3712376,65.4949248 L50.9135735,67.7675703 L53.3153466,67.7675703 Z M42.0554209,55.6554025 L40.6091919,55.6554025 L40.6091919,52.7112935 L42.0554209,52.7112935 L42.0554209,55.6554025 Z M45.2577851,55.6554025 L43.8115561,55.6554025 L43.8115561,52.7112935 L45.2577851,52.7112935 L45.2577851,55.6554025 Z M57.3183019,56.1977384 L51.3009562,56.1977384 L51.3009562,52.8662466 L57.3183019,52.8662466 L57.3183019,56.1977384 Z M45.2577851,60.5880764 L43.8115561,60.5880764 L43.8115561,57.3598867 L45.2577851,57.3598867 L45.2577851,60.5880764 Z M42.0554209,60.5880764 L40.6091919,60.5880764 L40.6091919,57.3598867 L42.0554209,57.3598867 L42.0554209,60.5880764 Z M59.3585178,66.5795965 L61.1921295,65.2883206 C60.469015,63.6871385 59.4618198,61.8277013 58.170544,59.6841833 L56.3627577,60.7946806 C57.6282081,62.912373 58.6354033,64.8234613 59.3585178,66.5795965 Z M37.7942105,67.5093152 C41.2031788,67.1477579 44.2247644,66.6828986 46.8847927,66.0889117 L46.8847927,65.7273544 L48.5376258,66.9411538 C49.8805528,65.1850186 51.0685266,63.1189771 52.0757218,60.7430295 L50.0613314,59.7358343 C49.1832638,61.8277013 48.1244176,63.661313 46.8847927,65.2366696 L46.8847927,63.8162661 C44.1989389,64.358602 41.0482257,64.7976358 37.4843042,65.1333675 L37.7942105,67.5093152 Z M80.8826521,67.948349 L80.8826521,66.9411538 L93.0722964,66.9411538 L93.0722964,67.948349 L95.5515461,67.948349 L95.5515461,56.9725039 L85.6861984,56.9725039 L87.2099039,55.4229729 C85.866977,54.4416032 84.2657949,53.4602335 82.3547066,52.4788638 C82.3805321,52.3755618 82.4063576,52.2464342 82.4580086,52.1173066 L87.5972867,52.1173066 L87.5972867,49.8704865 L82.974519,49.8704865 C83.0778211,49.2506741 83.1294721,48.6050362 83.1811231,47.9077472 L86.8741722,47.9077472 L86.8741722,45.7384037 L79.7979803,45.7384037 C80.0045845,45.2735444 80.2111886,44.8086851 80.3919672,44.2921747 L78.1967982,43.8273154 C77.3187306,45.7900547 76.2598844,47.2879348 75.0719106,48.346781 L76.2857099,49.8704865 L75.1235616,49.8704865 L75.1235616,52.1173066 L79.9271079,52.1173066 L79.8754569,52.2206087 C79.0490403,53.9250928 77.3187306,55.3454963 74.6328768,56.5334701 L76.2857099,58.522035 C77.0604754,58.1604777 77.7577644,57.7472695 78.4292279,57.3340612 L78.4292279,67.948349 L80.8826521,67.948349 Z M97.4368089,55.5262749 L97.4368089,45.7642292 L88.3978777,45.7642292 L88.3978777,55.5262749 L97.4368089,55.5262749 Z M80.5985714,49.8704865 L76.8796968,49.8704865 C77.4736837,49.3281507 78.0418451,48.6825127 78.584181,47.9077472 L80.831001,47.9077472 C80.77935,48.5792107 80.7018734,49.2248486 80.5985714,49.8704865 Z M95.0350358,53.382757 L90.7996509,53.382757 L90.7996509,47.9335727 L95.0350358,47.9335727 L95.0350358,53.382757 Z M85.2471646,56.9725039 L78.9457382,56.9725039 C80.0562355,56.1460874 80.9343031,55.2421942 81.5541155,54.2608246 C83.0519955,55.1905432 84.2657949,56.0944363 85.2471646,56.9725039 Z M93.0722964,60.9496337 L80.8826521,60.9496337 L80.8826521,59.1418474 L93.0722964,59.1418474 L93.0722964,60.9496337 Z M93.0722964,64.7718103 L80.8826521,64.7718103 L80.8826521,63.0673261 L93.0722964,63.0673261 L93.0722964,64.7718103 Z M113.821665,67.948349 C115.06129,65.2108441 115.758579,61.6985737 115.887707,57.3857122 L120.200568,57.3857122 L120.200568,64.4877296 C120.200568,65.2108441 119.942313,65.5724013 119.451628,65.5724013 C118.831816,65.5724013 118.134527,65.5207503 117.385587,65.4432737 L118.005399,67.7159193 L120.174743,67.7159193 C121.672623,67.7159193 122.447388,66.8895027 122.447388,65.2883206 L122.447388,46.5389948 L119.193373,46.5389948 C119.503279,45.8158803 119.761534,45.0411147 119.942313,44.2146982 L117.359761,43.8531409 C117.204808,44.757034 116.972378,45.6609272 116.662472,46.5389948 L113.692538,46.5389948 L113.692538,55.1130666 L112.091355,55.1130666 L112.091355,57.3857122 L113.666712,57.3857122 C113.56341,60.8979826 112.969423,63.8420916 111.884751,66.1922138 L113.821665,67.948349 Z M135.101892,49.6122314 L135.101892,47.2104582 L130.375822,47.2104582 C130.014265,45.9708334 129.626882,44.8861616 129.239499,43.904792 L126.656947,44.3180002 C127.070156,45.1960678 127.483364,46.151612 127.844921,47.2104582 L123.273805,47.2104582 L123.273805,49.6122314 L135.101892,49.6122314 Z M120.200568,55.1130666 L115.913532,55.1130666 L115.913532,48.8116403 L120.200568,48.8116403 L120.200568,55.1130666 Z M117.927922,54.0800459 L119.735709,53.6151866 C119.219198,52.1689576 118.651037,50.8776817 118.031225,49.7671845 L116.275089,50.3353459 C116.946553,51.5233197 117.488889,52.7887701 117.927922,54.0800459 Z M124.281,68 C125.391497,66.50212 126.140437,64.9525889 126.553645,63.4030578 C126.966854,61.8018757 127.173458,59.8907874 127.173458,57.6439674 L127.173458,54.234999 L130.091741,54.234999 L130.091741,65.2108441 C130.091741,66.7603751 130.943983,67.5351407 132.700119,67.5351407 L133.552361,67.5351407 C134.327126,67.5351407 134.895288,67.4060131 135.256845,67.1735834 C135.592577,66.8895027 135.799181,66.3988179 135.902483,65.7015289 C136.005785,64.9784144 136.083261,63.8679172 136.083261,62.4216882 L133.862267,61.7243992 C133.862267,63.6871385 133.810616,64.7718103 133.758965,65.0300655 C133.707314,65.1333675 133.629837,65.2366696 133.552361,65.2883206 C133.449059,65.3399717 133.345757,65.3916227 133.242455,65.3916227 L132.75177,65.3916227 C132.493515,65.3916227 132.390212,65.2366696 132.390212,64.9784144 L132.390212,51.988179 L124.874987,51.988179 L124.874987,57.6439674 C124.874987,59.8391364 124.694208,61.517795 124.384302,62.6541178 C124.022745,63.9195682 123.351281,65.1333675 122.395737,66.3213413 L124.281,68 Z M117.82462,63.7387896 L119.761534,63.2222792 C119.270849,61.414493 118.728514,59.8391364 118.108701,58.4445584 L116.223438,59.0643709 C116.869076,60.5622509 117.411412,62.111782 117.82462,63.7387896 Z" id="灰鲸智航"></path>
                </g>
            </g>
        </g>
    </g>
</svg>