<?xml version="1.0" encoding="UTF-8"?>
<svg width="20px" height="20px" viewBox="0 0 20 20" version="1.1" xmlns="http://www.w3.org/2000/svg" xmlns:xlink="http://www.w3.org/1999/xlink">
    <title>Icon-maymap</title>
    <g id="页面-1" stroke="none" stroke-width="1" fill="none" fill-rule="evenodd">
        <g id="我的地图-hover" transform="translate(-20.000000, -112.000000)">
            <g id="Icon-maymap" transform="translate(20.000000, 112.000000)">
                <rect id="矩形" fill="#FFFFFF" opacity="0" x="0" y="0" width="20" height="20"></rect>
                <g id="编组" transform="translate(2.000000, 2.000000)" fill-rule="nonzero">
                    <path d="M1.90953846,10.6406154 C2.98923076,10.2809231 4.16553846,10.0341538 4.83969231,10.1689231 C5.87138461,10.3756923 6.66646154,11.1695385 6.97907692,12.6113846 L6.98615384,12.648 L7.02984615,12.6941539 L7.136,12.7956923 C7.2316923,12.8855385 7.35600001,13 7.37969231,13.0227692 C8.09292307,13.7033846 8.37753846,14.3750769 7.9396923,15.2036923 L7.90030769,15.2750769 L6.83199999,14.6636923 C6.96092306,14.4387692 6.9076923,14.2830769 6.57876924,13.9603077 L6.21999999,13.6233846 C6.19169231,13.5963077 6.16769231,13.5732308 6.1523077,13.5575385 C5.95753847,13.3593846 5.83907692,13.1901538 5.79353845,12.9566154 C5.59292306,11.9307692 5.16153846,11.4889231 4.59784616,11.376 C4.22953846,11.3021539 3.23723077,11.5049231 2.39169231,11.7778462 L2.29846154,11.8083077 L1.90953846,10.6406154 L1.90953846,10.6406154 Z" id="路径" fill="#3C7DFF"></path>
                    <path d="M8,0 C3.58153846,0 0,3.58153846 0,8 C0,12.4184615 3.58153846,16 8,16 C12.4184615,16 16,12.4184615 16,8 C16,3.58153846 12.4184615,0 8,0 Z M8,1.23076922 C11.7384615,1.23076922 14.7692308,4.26153846 14.7692308,8 C14.7692308,11.7384615 11.7384615,14.7692308 8,14.7692308 C4.26153846,14.7692308 1.23076922,11.7384615 1.23076922,8 C1.23076922,4.26153846 4.26153846,1.23076922 8,1.23076922 Z" id="形状" fill="#FFFFFF"></path>
                    <path d="M5.95815384,6.03753846 C5.95938462,6.03261538 5.9603077,6.03261538 5.96153845,6.03661538 L5.96953847,6.07938462 C5.98030769,6.13692309 5.99846155,6.21015384 6.02369231,6.29784615 L6.06984615,6.45046154 C6.11076924,6.57938461 6.16030769,6.72246154 6.23138461,6.91846154 L6.512,7.68399999 C6.61230769,7.96092307 6.66338461,8.11415384 6.71476922,8.29107693 C6.92369231,9.00738462 6.28830769,9.52892308 5.53323076,9.61046153 C4.82553846,9.68676922 4.08276922,9.38892307 3.52461538,8.73261538 C3.33384615,8.50799999 3.212,8.26461538 3.11138461,7.95476923 L3.05538462,7.76923077 L3.00615384,7.58892307 C2.90246153,7.208 2.87630769,7.15815385 2.76276923,7.13846153 L2.744,7.13538462 C2.69129171,7.12807658 2.63813539,7.12447799 2.58492307,7.12461538 C2.31723076,7.12430768 2.00461538,7.20461537 1.68523076,7.34153846 C1.56892307,7.39138461 1.46061537,7.44523077 1.36430769,7.49846153 L1.26923077,7.55323077 L1.25784615,7.56030769 C0.972102516,7.74434595 0.591269041,7.66189746 0.407230771,7.37615383 C0.223192501,7.0904102 0.305640982,6.70957673 0.59138461,6.52553845 C0.721538456,6.44153845 0.931999995,6.32553846 1.2,6.21046154 C1.66000001,6.01323078 2.12676923,5.89323078 2.58646154,5.89384616 C2.69876923,5.89384616 2.80953846,5.90153847 2.91784616,5.91723076 C3.6603077,6.02307691 3.94892308,6.40953846 4.17107692,7.18461538 L4.26061538,7.50646154 C4.32276923,7.71384615 4.38276923,7.84184617 4.46246153,7.93538462 C4.75692307,8.28184616 5.09938461,8.41938462 5.40123076,8.38676923 L5.44092307,8.38123077 L5.45169231,8.37907692 L5.35476923,8.10338462 L5.08061539,7.35569231 C4.76707693,6.49323076 4.68676924,6.17907693 4.74215384,5.84430768 C4.92246154,4.76338461 5.49661538,3.85446154 6.71846153,3.69630768 L6.80676924,3.68615384 C7.5083077,3.61784614 7.69292308,3.1916923 7.45846154,2.98307692 C7.03753847,2.60861539 5.304,2.31661538 4.11261538,2.48676923 C3.77614652,2.53486048 3.46439895,2.30108424 3.4163077,1.96461538 C3.36821644,1.62814652 3.60199268,1.31639895 3.93846154,1.26830769 C5.45353847,1.05199999 7.53323077,1.40246155 8.2763077,2.0633846 C9.35384617,3.02123075 8.65261539,4.69261538 7.0043077,4.90246154 L6.92615384,4.91107691 C6.37723077,4.96461538 6.08184615,5.39292307 5.96861539,5.97815384 L5.95815384,6.03753846 L5.95815384,6.03753846 Z M12.0996923,2.01846153 C12.3896448,1.86187639 12.7514859,1.96148821 12.9204463,2.24440823 C13.0894067,2.52732826 13.0055136,2.89313341 12.7301539,3.07415384 L12.6889231,3.09876923 C12.4673846,3.21969231 11.9126154,3.77815385 11.4323077,4.38492307 C11.2347692,4.63415384 11.0630769,4.87415384 10.9341538,5.08092307 L10.9132308,5.11507691 L10.9504615,5.11261538 C11.0781539,5.10184616 11.2243077,5.08492307 11.3892308,5.06215385 L11.5750769,5.03538462 L12.4409231,4.89569231 C12.4975385,4.88707691 12.5473846,4.8796923 12.5941538,4.87323076 C12.7156923,4.85630768 12.812,4.84584615 12.8947692,4.84215384 C13.0969231,4.83261538 13.2193846,4.8443077 13.3889231,4.95723076 C13.628,5.11661537 13.8750769,5.57661538 14.0941539,6.12430769 C14.1956923,6.37846154 14.2698462,6.61107693 14.3049231,6.80553846 C14.3310769,6.95138461 14.3381539,7.08246154 14.3144615,7.21384616 C14.2652308,7.48923078 14.0824615,7.73138462 13.7624615,7.79538462 L13.6972308,7.80707692 C13.5811097,7.82484479 13.464681,7.8405396 13.348,7.85415385 L12.2307692,7.98861538 L11.78,8.04707692 C11.6778462,8.06092308 11.5830769,8.07446153 11.4953846,8.08738461 L11.356,8.10892308 C11.1363077,8.1436923 10.9812308,8.17415384 10.9147692,8.19507693 C10.2738461,8.396 10.0236923,8.73938462 10.0209231,9.22615385 C10.0184616,9.65076924 10.2286154,10.1556923 10.4532308,10.3803077 C10.5593846,10.4867692 10.7024615,10.5975385 10.9255385,10.7489231 L11.4390769,11.0873846 L11.4750769,11.1113846 C11.6350769,11.22 11.76,11.3116923 11.8692308,11.4046154 C12.2452308,11.7246154 12.4486154,12.0652308 12.3378462,12.5092308 L12.3030769,12.6369231 C12.2609231,12.7843077 12.1969231,12.9876923 12.1132308,13.2424615 L11.9313846,13.7870769 L11.7206154,14.4030769 L11.5193846,14.9806154 C11.4106086,15.2936736 11.0734476,15.4643591 10.7567466,15.3666958 C10.4400456,15.2690325 10.257571,14.9381033 10.344,14.6181538 L10.3646154,14.5544615 L10.4855385,14.2076923 L10.628,13.7953846 L10.7904615,13.3190769 C10.8793846,13.0556923 10.9553846,12.8261539 11.0144615,12.6406154 L11.0996923,12.3664615 L11.0018462,12.2827692 C10.9436759,12.2373976 10.8834042,12.1947864 10.8212308,12.1550769 L10.3932308,11.8729231 C10.0187692,11.6267692 9.78646153,11.4544615 9.58276923,11.2504615 C9.1273846,10.7947692 8.78584614,9.97446154 8.79011355,9.21907692 C8.79600001,8.20061537 9.39138462,7.38276922 10.5470769,7.02061538 C10.7083077,6.96984615 10.9572308,6.92307693 11.3141539,6.86984615 L11.508,6.84215384 L11.7209231,6.81323077 L12.9812308,6.65784615 L12.9513846,6.58153847 C12.8945993,6.43978486 12.8318772,6.30048228 12.7633846,6.164 L12.7283077,6.09723076 L12.512,6.13076923 L12.0535385,6.20615384 C11.9452308,6.2236923 11.8489231,6.23876923 11.7572308,6.25261538 L11.6673846,6.26584616 C11.2261538,6.33015384 10.8818462,6.36215386 10.5966154,6.3563077 C10.0452308,6.34523077 9.65907693,6.216 9.51661539,5.7323077 C9.36246154,5.20738463 9.73815385,4.54153846 10.4673846,3.62061538 L10.6132308,3.44 C11.1510769,2.78584616 11.7243077,2.22276923 12.0993846,2.01846153 L12.0996923,2.01846153 Z" id="形状" fill="#FFFFFF"></path>
                </g>
            </g>
        </g>
    </g>
</svg>