<?xml version="1.0" encoding="UTF-8"?>
<svg width="20px" height="20px" viewBox="0 0 20 20" version="1.1" xmlns="http://www.w3.org/2000/svg" xmlns:xlink="http://www.w3.org/1999/xlink">
    <title>Icon-Label management备份</title>
    <g id="页面-1" stroke="none" stroke-width="1" fill="none" fill-rule="evenodd" opacity="0.6">
        <g id="我的地图-hover" transform="translate(-20.000000, -156.000000)">
            <g id="Icon-Label-management备份" transform="translate(20.000000, 156.000000)">
                <rect id="矩形" fill="#FFFFFF" opacity="0" x="0" y="0" width="20" height="20"></rect>
                <g id="Icon-Label-management" transform="translate(10.000000, 10.000000) scale(-1, 1) translate(-10.000000, -10.000000) translate(2.000000, 2.000000)" fill-rule="nonzero">
                    <path d="M8.2489072,16 C7.7196978,16 7.17223981,15.7993226 6.77077061,15.3797245 L1.02246164,9.63305408 C0.164777449,8.77561437 -0.181945948,7.57155009 0.0917830498,6.38572922 L0.803478445,1.97082689 C0.894721445,1.36879475 1.36918504,0.894466402 1.97138884,0.803249411 L6.38755001,0.0917568868 C7.573709,-0.181894084 8.7781166,0.164730479 9.63580079,1.02217019 L15.3841098,6.76884058 C16.2052967,7.58979349 16.2052967,8.92156155 15.3841098,9.72427107 L9.72704379,15.3797245 C9.32557459,15.7993226 8.7963652,16 8.2489072,16 Z M2.24511784,2.24447786 L1.51517384,6.69586699 C1.35093644,7.38911611 1.55167104,8.10060864 2.06263184,8.59318039 L7.8109408,14.3580942 C8.0664212,14.6135017 8.4678904,14.6135017 8.7051222,14.3580942 L14.3439396,8.72088417 C14.59942,8.4654766 14.59942,8.06412184 14.3439396,7.82695767 L8.5956306,2.06204388 C8.0846698,1.55122873 7.3729744,1.35055135 6.69777621,1.51474194 L6.64303041,1.53298533 L2.24511784,2.24447786 Z" id="形状" fill="#FFFFFF"></path>
                    <path d="M5.27438542,7.46208971 C4.70867882,7.46208971 4.16122082,7.24316893 3.72325443,6.82357077 C2.86557023,5.96613106 2.86557023,4.57963281 3.72325443,3.7221931 C4.58093862,2.86475339 5.96783221,2.86475339 6.82551641,3.7221931 C7.6832006,4.57963281 7.6832006,5.96613106 6.82551641,6.82357077 C6.38755001,7.26141233 5.84009201,7.46208971 5.27438542,7.46208971 L5.27438542,7.46208971 Z M5.27438542,4.56138941 C5.09189942,4.56138941 4.90941342,4.63436301 4.76342462,4.78031019 C4.47144702,5.07220456 4.47144702,5.52828951 4.76342462,5.82018388 C5.05540222,6.11207825 5.51161722,6.11207825 5.80359481,5.82018388 C6.09557241,5.52828951 6.09557241,5.07220456 5.80359481,4.78031019 C5.63935742,4.61611961 5.45687142,4.56138941 5.27438542,4.56138941 L5.27438542,4.56138941 Z" id="形状" fill="#FFFFFF"></path>
                    <path d="M10.8219598,6.76884058 L6.69777621,10.9100919 C6.40579861,11.2019863 5.94958361,11.2019863 5.65760601,10.9100919 C5.36562842,10.6181976 5.36562842,10.1621126 5.65760601,9.87021825 L9.78178959,5.74721029 C10.0737672,5.45531592 10.5299822,5.45531592 10.8219598,5.74721029 C11.1139374,6.02086126 11.1139374,6.49518961 10.8219598,6.76884058 Z" id="路径" fill="#3C7DFF"></path>
                    <path d="M10.9314514,10.3445466 L8.6138792,12.6797016 C8.3219016,12.9715959 7.8656866,12.9715959 7.573709,12.6797016 C7.2817314,12.3878072 7.2817314,11.9317222 7.573709,11.6398279 L9.89128119,9.32291631 C10.1832588,9.03102194 10.6394738,9.03102194 10.9314514,9.32291631 C11.223429,9.61481068 11.223429,10.0708956 10.9314514,10.3445466 L10.9314514,10.3445466 Z" id="路径" fill="#3C7DFF"></path>
                </g>
            </g>
        </g>
    </g>
</svg>